<mxfile host="app.diagrams.net" modified="2024-02-19T23:37:15.991Z" agent="Mozilla/5.0 (Windows NT 10.0; Win64; x64) AppleWebKit/537.36 (KHTML, like Gecko) Chrome/121.0.0.0 Safari/537.36" etag="l5FeWFRvPYA4R89CeVd8" version="21.6.9" type="device">
  <diagram name="Page-1" id="QfMpMBtg5FbHUE5826f6">
    <mxGraphModel dx="989" dy="509" grid="1" gridSize="10" guides="1" tooltips="1" connect="1" arrows="1" fold="1" page="0" pageScale="1" pageWidth="850" pageHeight="1100" math="0" shadow="0">
      <root>
        <mxCell id="0" />
        <mxCell id="1" parent="0" />
        <mxCell id="bo15evatfYEAUdu1C9lu-33" style="edgeStyle=orthogonalEdgeStyle;rounded=0;orthogonalLoop=1;jettySize=auto;html=1;entryX=0.5;entryY=1;entryDx=0;entryDy=0;" edge="1" parent="1" source="bo15evatfYEAUdu1C9lu-1" target="bo15evatfYEAUdu1C9lu-8">
          <mxGeometry relative="1" as="geometry">
            <Array as="points">
              <mxPoint x="670" y="370" />
              <mxPoint x="170" y="370" />
            </Array>
          </mxGeometry>
        </mxCell>
        <mxCell id="bo15evatfYEAUdu1C9lu-1" value="Azure Function Running Rust" style="shape=image;verticalLabelPosition=middle;verticalAlign=middle;imageAspect=0;aspect=fixed;image=data:image/svg+xml,PHN2ZyB4bWxucz0iaHR0cDovL3d3dy53My5vcmcvMjAwMC9zdmciIGRhdGEtbmFtZT0iZmx1ZW50X2ljb25zIiB2aWV3Qm94PSIwIDAgMTggMTgiPjxkZWZzPjxyYWRpYWxHcmFkaWVudCBpZD0iYSIgY3g9Ii0yNC4yMiIgY3k9Ii0yMDAuNDQiIHI9IjYuMjIiIGdyYWRpZW50VHJhbnNmb3JtPSJtYXRyaXgoMS4wMSAwIDAgMS4xNCAzMy41NCAyMzguMzIpIiBncmFkaWVudFVuaXRzPSJ1c2VyU3BhY2VPblVzZSI+PHN0b3Agb2Zmc2V0PSIuMiIgc3RvcC1jb2xvcj0iI2ZmZDcwZiIvPjxzdG9wIG9mZnNldD0iLjQ0IiBzdG9wLWNvbG9yPSIjZmZjYjEyIi8+PHN0b3Agb2Zmc2V0PSIuODciIHN0b3AtY29sb3I9IiNmZWFjMTkiLz48c3RvcCBvZmZzZXQ9IjEiIHN0b3AtY29sb3I9IiNmZWExMWIiLz48L3JhZGlhbEdyYWRpZW50PjwvZGVmcz48cGF0aCBkPSJNOC4zOCAxMEg1LjE5QS4xOS4xOSAwIDAxNSA5LjgxYS4yOS4yOSAwIDAxMC0uMDlMOC44Ni4xMkEuMTguMTggMCAwMTkgMGgzLjhhLjE5LjE5IDAgMDEuMi4yLjI0LjI0IDAgMDEwIC4xMkw4LjQ1IDcuODNoNC4zOEEuMi4yIDAgMDExMyA4YS4xOC4xOCAwIDAxMCAuMTNsLTcuMzIgOS42NmMtLjA2LjA1LS41NS41Ni0uMzEtLjIyeiIgZmlsbD0idXJsKCNhKSIvPjxwYXRoIGQ9Ik01LjUxMiAxMy4xNDJsLS41OTMuNTk1YS4yNy4yNyAwIDAxLS4zODIgMEwuMTU0IDkuMzY4YS41NC41NCAwIDAxMC0uNzY0bC41OTItLjU5NSA0Ljc2NiA0Ljc1MmEuMjcuMjcgMCAwMTAgLjM4MnoiIGZpbGw9IiM1MGU2ZmYiLz48cGF0aCBkPSJNNC44NCA0LjI3bC41OTUuNTk0YS4yNy4yNyAwIDAxLjAwMS4zODJMLjc1NCA5Ljk0LjE2IDkuMzQ3YS41NC41NCAwIDAxLS4wMDktLjc3bDQuMy00LjMxM2EuMjcuMjcgMCAwMS4zODMgMHoiIGZpbGw9IiMxNDkwZGYiLz48cGF0aCBkPSJNMTcuMjU2IDguMDA1bC41OTMuNTk0YS41NC41NCAwIDAxLS4wMDEuNzY0bC00LjM4MyA0LjM3YS4yNy4yNyAwIDAxLS4zODIgMGwtLjU5My0uNTk0YS4yNy4yNyAwIDAxMC0uMzgybDQuNzY2LTQuNzUyeiIgZmlsbD0iIzUwZTZmZiIvPjxwYXRoIGQ9Ik0xNy44MzkgOS4zNDdsLS42MDIuNi00LjY4Mi00LjY5NWEuMjcuMjcgMCAwMTAtLjM4MWwuNTk1LS41OTRhLjI3LjI3IDAgMDEuMzgyLjAwMWw0LjMgNC4zMTJhLjU0LjU0IDAgMDEwIC43NjR6IiBmaWxsPSIjMTQ5MGRmIi8+PC9zdmc+;fontFamily=Architects Daughter;fontSource=https%3A%2F%2Ffonts.googleapis.com%2Fcss%3Ffamily%3DArchitects%2BDaughter;labelPosition=right;align=center;whiteSpace=wrap;horizontal=1;spacing=2;spacingLeft=6;" vertex="1" parent="1">
          <mxGeometry x="628.41" y="229" width="90" height="90" as="geometry" />
        </mxCell>
        <mxCell id="bo15evatfYEAUdu1C9lu-18" style="edgeStyle=orthogonalEdgeStyle;rounded=0;orthogonalLoop=1;jettySize=auto;html=1;exitX=1;exitY=0.5;exitDx=0;exitDy=0;entryX=0;entryY=0.5;entryDx=0;entryDy=0;dashed=1;" edge="1" parent="1" source="bo15evatfYEAUdu1C9lu-3" target="bo15evatfYEAUdu1C9lu-1">
          <mxGeometry relative="1" as="geometry" />
        </mxCell>
        <mxCell id="bo15evatfYEAUdu1C9lu-3" value="Event Grid" style="shape=image;verticalLabelPosition=bottom;verticalAlign=top;imageAspect=0;aspect=fixed;image=data:image/svg+xml,PHN2ZyB4bWxucz0iaHR0cDovL3d3dy53My5vcmcvMjAwMC9zdmciIHZpZXdCb3g9IjAgMCAxOCAxOCI+PGRlZnM+PGxpbmVhckdyYWRpZW50IGlkPSJhIiB4MT0iNDU4OS43MiIgeTE9Ii01MTgwLjAyIiB4Mj0iNDU4OS43MiIgeTI9Ii01MTg0LjIxIiBncmFkaWVudFRyYW5zZm9ybT0ibWF0cml4KC41IDAgMCAtLjUgLTIyNzUuMzEgLTI1ODkuMzIpIiBncmFkaWVudFVuaXRzPSJ1c2VyU3BhY2VPblVzZSI+PHN0b3Agb2Zmc2V0PSIwIiBzdG9wLWNvbG9yPSIjYzY5YWViIi8+PHN0b3Agb2Zmc2V0PSIxIiBzdG9wLWNvbG9yPSIjNmY0YmIyIi8+PC9saW5lYXJHcmFkaWVudD48bGluZWFyR3JhZGllbnQgaWQ9ImIiIHgxPSI0NTg3Ljk5IiB5MT0iLTUxODguNDciIHgyPSI0NTg3Ljk5IiB5Mj0iLTUxOTIuNjUiIGhyZWY9IiNhIi8+PC9kZWZzPjxwYXRoIGQ9Ik0xMi43IDguMTV2LS42SDguMThMNi4wNiA5LjY2SDQuNUw4LjEyIDZoMi40N3YtLjU3SDcuODdMMy42NSA5LjY2aC0uNnYuNmgxLjgxTDcgMTIuMzdoNS4xdi0uNkg3LjIybC0xLjUxLTEuNTFoMy42N3YtLjZINi45MmwxLjUtMS41MXoiIGZpbGw9IiMzMmJlZGQiLz48Y2lyY2xlIGN4PSI5Ljk4IiBjeT0iOS45NiIgcj0iLjg3IiBmaWxsPSIjZmZmIi8+PGNpcmNsZSBjeD0iMTAuODkiIGN5PSI1Ljc0IiByPSIuODciIGZpbGw9IiNmZmYiLz48Y2lyY2xlIGN4PSIxMyIgY3k9IjcuODUiIHI9Ii44NyIgZmlsbD0iI2ZmZiIvPjxjaXJjbGUgY3g9IjEyLjEiIGN5PSIxMi4wNyIgcj0iLjg3IiBmaWxsPSIjZmZmIi8+PGNpcmNsZSBjeD0iMTAuODYiIGN5PSI1Ljc0IiByPSIxLjA1IiBmaWxsPSIjNTBlNmZmIi8+PGNpcmNsZSBjeD0iMTIuOTciIGN5PSI3Ljg1IiByPSIxLjA1IiBmaWxsPSJ1cmwoI2EpIi8+PGNpcmNsZSBjeD0iMTIuMSIgY3k9IjEyLjA3IiByPSIxLjA1IiBmaWxsPSJ1cmwoI2IpIi8+PGNpcmNsZSBjeD0iOS45OCIgY3k9IjkuOTYiIHI9IjEuMDUiIGZpbGw9IiM1MGU2ZmYiLz48ZyBmaWxsPSIjOTk5Ij48cGF0aCBkPSJNMS4wNyAxLjQzaDEuMjlWNWEuMjkuMjkgMCAwMS0uMjkuMjlILjc5QS4yOS4yOSAwIDAxLjUgNVYyYS41Ny41NyAwIDAxLjU3LS41N3oiLz48cGF0aCBkPSJNMS4wNyAxLjQzaDEuMjlWNWEuMjkuMjkgMCAwMS0uMjkuMjlILjc5QS4yOS4yOSAwIDAxLjUgNVYyYS41Ny41NyAwIDAxLjU3LS41N3oiIG9wYWNpdHk9Ii41Ii8+PC9nPjxnIGZpbGw9IiM5OTkiPjxwYXRoIGQ9Ik0xNS42NCAxLjQzaDEuMjlhLjU3LjU3IDAgMDEuNTcuNTd2M2EuMjkuMjkgMCAwMS0uMjkuMjloLTEuMjlhLjI5LjI5IDAgMDEtLjI4LS4yOVYxLjQzeiIvPjxwYXRoIGQ9Ik0xNS42NCAxLjQzaDEuMjlhLjU3LjU3IDAgMDEuNTcuNTd2M2EuMjkuMjkgMCAwMS0uMjkuMjloLTEuMjlhLjI5LjI5IDAgMDEtLjI4LS4yOVYxLjQzeiIgb3BhY2l0eT0iLjUiLz48L2c+PHBhdGggZD0iTTE3LjUgMnYxLjI1SC41VjJhLjU3LjU3IDAgMDEuNTctLjU3aDE1Ljg3YS41Ny41NyAwIDAxLjU2LjU3eiIgZmlsbD0iIzk0OTQ5NCIvPjxnIGZpbGw9IiM5OTkiPjxwYXRoIGQ9Ik0uNzkgMTIuNjhoMS4yOWEuMjkuMjkgMCAwMS4yOS4yOXYzLjZoLTEuM0EuNTcuNTcgMCAwMS41IDE2di0zYS4yOS4yOSAwIDAxLjI5LS4zMnoiLz48cGF0aCBkPSJNLjc5IDEyLjY4aDEuMjlhLjI5LjI5IDAgMDEuMjkuMjl2My42aC0xLjNBLjU3LjU3IDAgMDEuNSAxNnYtM2EuMjkuMjkgMCAwMS4yOS0uMzJ6IiBvcGFjaXR5PSIuNSIvPjwvZz48ZyBmaWxsPSIjOTk5Ij48cGF0aCBkPSJNMTUuOTIgMTIuNjhoMS4yOWEuMjkuMjkgMCAwMS4yOS4yOXYzYS41Ny41NyAwIDAxLS41Ny41N2gtMS4yOVYxM2EuMjkuMjkgMCAwMS4yOC0uMzJ6Ii8+PHBhdGggZD0iTTE1LjkyIDEyLjY4aDEuMjlhLjI5LjI5IDAgMDEuMjkuMjl2M2EuNTcuNTcgMCAwMS0uNTcuNTdoLTEuMjlWMTNhLjI5LjI5IDAgMDEuMjgtLjMyeiIgb3BhY2l0eT0iLjUiLz48L2c+PHBhdGggZD0iTS41IDE2di0xLjI1aDE3VjE2YS41Ny41NyAwIDAxLS41Ny41N0gxLjA3QS41Ny41NyAwIDAxLjUgMTZ6IiBmaWxsPSIjOTQ5NDk0Ii8+PC9zdmc+;fontFamily=Architects Daughter;fontSource=https%3A%2F%2Ffonts.googleapis.com%2Fcss%3Ffamily%3DArchitects%2BDaughter;" vertex="1" parent="1">
          <mxGeometry x="380" y="229" width="90" height="90" as="geometry" />
        </mxCell>
        <mxCell id="bo15evatfYEAUdu1C9lu-16" value="" style="edgeStyle=orthogonalEdgeStyle;rounded=0;orthogonalLoop=1;jettySize=auto;html=1;" edge="1" parent="1" source="bo15evatfYEAUdu1C9lu-7" target="bo15evatfYEAUdu1C9lu-8">
          <mxGeometry relative="1" as="geometry" />
        </mxCell>
        <mxCell id="bo15evatfYEAUdu1C9lu-7" value="User" style="shape=image;verticalLabelPosition=middle;verticalAlign=middle;imageAspect=0;aspect=fixed;image=data:image/svg+xml,PHN2ZyB4bWxucz0iaHR0cDovL3d3dy53My5vcmcvMjAwMC9zdmciIHZpZXdCb3g9IjAgMCAxOCAxOCI+PGRlZnM+PGxpbmVhckdyYWRpZW50IGlkPSJhIiB4MT0iOSIgeTE9IjYuODgiIHgyPSI5IiB5Mj0iMjAuNDUiIGdyYWRpZW50VW5pdHM9InVzZXJTcGFjZU9uVXNlIj48c3RvcCBvZmZzZXQ9Ii4yMiIgc3RvcC1jb2xvcj0iIzMyZDRmNSIvPjxzdG9wIG9mZnNldD0iMSIgc3RvcC1jb2xvcj0iIzE5OGFiMyIvPjwvbGluZWFyR3JhZGllbnQ+PGxpbmVhckdyYWRpZW50IGlkPSJiIiB4MT0iOC42MSIgeTE9Ii0uNCIgeDI9IjkuNiIgeTI9IjExLjkyIiBncmFkaWVudFVuaXRzPSJ1c2VyU3BhY2VPblVzZSI+PHN0b3Agb2Zmc2V0PSIuMjIiIHN0b3AtY29sb3I9IiMzMmQ0ZjUiLz48c3RvcCBvZmZzZXQ9IjEiIHN0b3AtY29sb3I9IiMxOThhYjMiLz48L2xpbmVhckdyYWRpZW50PjwvZGVmcz48cGF0aCBkPSJNMTUuNzIgMThhMS40NSAxLjQ1IDAgMDAxLjQ1LTEuNDUuNDcuNDcgMCAwMDAtLjE3QzE2LjU5IDExLjgxIDE0IDguMDkgOSA4LjA5cy03LjY2IDMuMTUtOC4xNyA4LjNBMS40NiAxLjQ2IDAgMDAyLjE0IDE4aDEzLjU4eiIgZmlsbD0idXJsKCNhKSIvPjxwYXRoIGQ9Ik05IDkuMTdhNC41OSA0LjU5IDAgMDEtMi40OC0uNzNMOSAxNC44NmwyLjQ0LTYuMzhBNC41MyA0LjUzIDAgMDE5IDkuMTd6IiBmaWxsPSIjZmZmIiBvcGFjaXR5PSIuOCIvPjxjaXJjbGUgY3g9IjkuMDEiIGN5PSI0LjU4IiByPSI0LjU4IiBmaWxsPSJ1cmwoI2IpIi8+PC9zdmc+;fontFamily=Architects Daughter;fontSource=https%3A%2F%2Ffonts.googleapis.com%2Fcss%3Ffamily%3DArchitects%2BDaughter;labelPosition=left;align=right;spacingRight=4;" vertex="1" parent="1">
          <mxGeometry x="140" y="60" width="60" height="60" as="geometry" />
        </mxCell>
        <mxCell id="bo15evatfYEAUdu1C9lu-17" style="edgeStyle=orthogonalEdgeStyle;rounded=0;orthogonalLoop=1;jettySize=auto;html=1;entryX=0;entryY=0.5;entryDx=0;entryDy=0;dashed=1;" edge="1" parent="1" source="bo15evatfYEAUdu1C9lu-8" target="bo15evatfYEAUdu1C9lu-3">
          <mxGeometry relative="1" as="geometry" />
        </mxCell>
        <mxCell id="bo15evatfYEAUdu1C9lu-8" value="Azure Blob Storage" style="shape=image;verticalLabelPosition=middle;verticalAlign=middle;imageAspect=0;aspect=fixed;image=data:image/svg+xml,PHN2ZyB4bWxucz0iaHR0cDovL3d3dy53My5vcmcvMjAwMC9zdmciIHZpZXdCb3g9IjAgMCAxOCAxOCI+PGRlZnM+PGxpbmVhckdyYWRpZW50IGlkPSJhIiB4MT0iOSIgeTE9IjE1LjgzNCIgeDI9IjkiIHkyPSI1Ljc4OCIgZ3JhZGllbnRVbml0cz0idXNlclNwYWNlT25Vc2UiPjxzdG9wIG9mZnNldD0iMCIgc3RvcC1jb2xvcj0iIzMyYmVkZCIvPjxzdG9wIG9mZnNldD0iLjc3NSIgc3RvcC1jb2xvcj0iIzMyZDRmNSIvPjwvbGluZWFyR3JhZGllbnQ+PC9kZWZzPjxwYXRoIGQ9Ik0uNSA1Ljc4OGgxN3Y5LjQ3OGEuNTY4LjU2OCAwIDAxLS41NjguNTY4SDEuMDY4YS41NjguNTY4IDAgMDEtLjU2OC0uNTY4VjUuNzg4eiIgZmlsbD0idXJsKCNhKSIvPjxwYXRoIGQ9Ik0xLjA3MSAyLjE2NmgxNS44NThhLjU2OC41NjggMCAwMS41NjguNTY4djMuMDU0SC41VjIuNzM0YS41NjguNTY4IDAgMDEuNTcxLS41Njh6IiBmaWxsPSIjMDA3OGQ0Ii8+PHJlY3QgeD0iMi4zMjgiIHk9IjcuMDQ5IiB3aWR0aD0iNi4yODEiIGhlaWdodD0iMy40MDgiIHJ4PSIuMjgzIiBmaWxsPSIjMDA3OGQ0Ii8+PHJlY3QgeD0iOS4zMzYiIHk9IjcuMDQ5IiB3aWR0aD0iNi4yODEiIGhlaWdodD0iMy40MDgiIHJ4PSIuMjgzIiBmaWxsPSIjZmZmIi8+PHJlY3QgeD0iMi4yOTYiIHk9IjExLjEyOCIgd2lkdGg9IjYuMjgxIiBoZWlnaHQ9IjMuNDA4IiByeD0iLjI4MyIgZmlsbD0iIzAwNzhkNCIvPjxyZWN0IHg9IjkuMzA0IiB5PSIxMS4xMjgiIHdpZHRoPSI2LjI4MSIgaGVpZ2h0PSIzLjQwOCIgcng9Ii4yODMiIGZpbGw9IiMwMDc4ZDQiLz48L3N2Zz4=;fontFamily=Architects Daughter;fontSource=https%3A%2F%2Ffonts.googleapis.com%2Fcss%3Ffamily%3DArchitects%2BDaughter;labelPosition=left;align=center;labelBorderColor=none;labelBackgroundColor=none;whiteSpace=wrap;" vertex="1" parent="1">
          <mxGeometry x="125" y="229" width="90" height="90" as="geometry" />
        </mxCell>
        <mxCell id="bo15evatfYEAUdu1C9lu-14" value="" style="shape=image;verticalLabelPosition=bottom;labelBackgroundColor=default;verticalAlign=top;aspect=fixed;imageAspect=0;image=https://cdn-icons-png.flaticon.com/512/9159/9159105.png;" vertex="1" parent="1">
          <mxGeometry x="125" y="150" width="40" height="40" as="geometry" />
        </mxCell>
        <mxCell id="bo15evatfYEAUdu1C9lu-26" value="" style="shape=image;verticalLabelPosition=bottom;labelBackgroundColor=default;verticalAlign=top;aspect=fixed;imageAspect=0;image=data:image/png,iVBORw0KGgoAAAANSUhEUgAAAlgAAAHBCAYAAAC158XKAAAAAXNSR0IArs4c6QAAIABJREFUeF7snQl8XNV1/899I8mS903zRpoZWWLHrMagkUwKIm0xhARMU4hJSYA/aSBbwc4CJE0wWYqzYEwgkIUUk9KyJWVJUmzSFEEC1sgYDAnGEECyNJLmSV5kG1uSR/PuP1eWQLYlzXsz9+2/+/nkkza+9yzfczVz5i7nMkIDARAAARAAARAAARCQSoBJlQZhIAACIAACIAACIAAChAQLkwAEQAAEQAAEQAAEJBNAgiUZKMSBAAiAAAiAAAiAABIszAEQAAEQAAEQAAEQkEwACZZkoBAHAiAAAiAAAiAAAkiwMAdAAARAAARAAARAQDIBJFiSgUIcCIAACIAACIAACCDBwhwAARAAARAAARAAAckEkGBJBgpxIAACIAACIAACIIAEC3MABEAABEAABEAABCQTQIIlGSjEgQAIgAAIgAAIgAASLMwBEAABEAABEAABEJBMAAmWZKAQBwIgAAIgAAIgAAJIsDAHQAAEQAAEQAAEQEAyASRYkoFCHAiAAAiAAAiAAAggwcIcAAEQAAEQAAEQAAHJBJBgSQYKcSAAAiAAAiAAAiCABAtzAARAAARAAARAAAQkE0CCJRkoxIEACIAACIAACIAAEizMARAAAdcRaDtzbiXLhBoYsYXCOEY8w4g3Dezf31izqbfXdQbDIBAAARA4hAASLEwJEAAB1xDoXFg5OVuk38KIX0dExWMYto8zuikW137EHqWsawyHISAAAiCABAtzAARAwI0EUrXROcQG/5eITs1lHyd6fPeeOR87YfPm/bn64t9BAARAwAkCWMFygjp0ggAIHESAX0Khjjb1KSL6e6NoGKc7o83avxjtj34gAAIgYCcBJFh20oYuEACBMQmkaiNXEONrzOJRSP+bymTPH82OQ38QAAEQsJoAEiyrCUM+CNhIoOtvIuWDGTpd4RThXM9yRWkjVpSMr0/12WiGKVU7Fs6asa+o5C0immtq4IHOr0SrtIVuPo8lYpLt5yczhVWNxGRKZuDl2Rt37srDXwwBARDwCAEkWB4JFMwEgYkIdC6srOKh7Nc5o0+N0W8fJ/rWpDL9rnBjz7tuI9lep97JOH0+X7s48Wviye6f5jveqnEtZ5RHSpjyrXFikuHEV08ZzHwHiZZVEYBcEHCWABIsZ/lDOwgUTKC9PnI20/kTRDQjh7AtymBoceXGzraClUoSsPWMyAkhhf+5QHHbuFJ8bHx9akeBcqQNb0+ET2bEfp9zVY5Rm5IJ/Y2bYiINAgSBQMAJIMEK+ASA+94m0LlwznF6UdFGIpps0JMtXCk+0y3JSCqhiiTkgwZtH7cbI/pZNKl9ulA5MsYPx6TJQMJ7QB2jNs6KF7glJjIYQAYIgID400YDARDwJIHhm3cvEFGtSQeauVLc4PS5rPZ69eNMp/80afv4SRbLLow2bXtJlrx85IgCqcpgSMRknpnxnNHP403aWNu7ZsSgLwiAgIsIIMFyUTBgCgiYIdBRp/4d5/Q7M2Pe68vp19F52sVOHQ5Pn6xOGSyjN4moMi/7xxjEiD9XWdX9Qad82vqBqllKpv93I9Xnzfo1OJitrN64rcvsOPQHARBwJwEkWO6MC6wCgZwEUgn1P4jo8pwdx+vA2I9jTenP5D2+gIHtdeHvMs6+UoCIMYdyUj4RT3Y9IFtuLnktDdWlRX19TzCic3P1HTccnN0QbU5/L9/xGAcCIOAuAkiw3BUPWAMChgiIL/Tivr7tJs5ejS2X0ddjTdq3DSmV1Km1Vq0pYvTGOE/hFKaFU08Zyxw1J7ljd2GCjI8WW7WdW9X7OaN/Mj7q8J6caHM8qZ1QiAyMBQEQcA8BJFjuiQUsAQHDBFKJ8CeI2C8MD5igo92rPh2JyFpOfLEM28eSwYn9IJ5Mf9kq+YfKTSXU1UQk3k4svOn6gtiGnk2FC4IEEAABpwkgwXI6AtAPAnkQkJ+ksA/Gkuln8jDF1JDO2vASnbHHTA0y3zmjKKGTK9d3bjE/1NyIVCL8RSL2A3Ojxu/NOH032qzdKEse5IAACDhHAAmWc+yhGQTyItC1IFKeLeHdeQ0ef1CGdL3WytWT4W3N14moWrLtY4n7XSyp5X0eyoh9qfrIJaTzR4z0NdGnI1qlzXPqoL4JO9EVBEAgBwEkWJgiIOAxAu0J9TpGJLalZLfeDGMLaprSrbIFC3mpWvWrxOg7VsgeSyYjuiya1B6yQl97XaSBcf60FefIOGPnxJvSjVbYDZkgAAL2EUCCZR9raAIBKQRSCXU9EdVJEXa4kNZQCaut+EO6R6b8jjMq41zJvm1FQjKBna3KYOiEyo2d+2T6sjURmR8i/jwRzZQpd0QWJ/r3eFK72grZkAkCIGAfASRY9rGGJhAomEDH6XOP5aGQ1WeLmicVZf+u/Pltewo2eFhAe0J9jBEtkSXPqBxO7JvxZPpmo/1z9RsuJNpMRNFcfQv4995MWVlFTWNrfwEyMBQEQMBhAkiwHA4A1IOAGQIdteGbOWMrzIzJpy8nemKwrGypjC/5ttrwYoWxtfnYIWFMRgkpR1e+0LW1UFlvL5w1Y1LRpGYifkyhsnKPZ5fEkulf5u6HHiAAAm4lgATLrZGBXY4REF+kZVRWPDCt5F0ZCYZMR1K16lvE6EiZMseXxe+OVnX/SyEHrvlCKu4oVl8iTifaY/NYWvhTsWT3hwrRP3xA//+IqL4QOSbG/jaW1D5sor/lXTsXVor3LsV/9snedrXceCgAAQcIIMFyADpUuo9AepEaHszyT3Bin2NENSMWMs7WcqK7os3ppxiR7qTlnYnKD+iU/YO9NrBvxZLpb+Srs6M28hXO+HfzHS9rHGfsQ/Gm9FP5yONESiqh/srmLc79A4P7w0du3LkrH5tljRFJlR7SLyDGv0hEiffkMvozEbutpDT7y3Bjz7uy9EEOCPiJABIsP0UTvuRFIFWrfpgYidtmU8YTwIn/gZTsZfH12zvyUiJhUHsifBcj9jkJosyJ4PzaWHP3T8wNImpdOLeiqCj0l4m4mpWZf3/+Rt/26acc/dZbA2ZlOMWdE78mnuz+qVl7ZfVvO109UQnxXxKxY8eXyVPE6cOx5u5XZOmFHBDwCwEkWH6JJPzIi0CqLnIpcf6wwcE7SadLYhu03xvsL63b0FZbkaoR0SxpQk0IEqs30aT2hIkh1FGn/ifn9HEzY6zsy4luiie1lWZ0dNSGv8IZc2YFjtOzsWatwYy9MvqKFbuOusgniXORVJcYkLmfMzor3qQlDfRFFxAIDAEkWIEJNRw9lEBnfeVxup4Vv7yNfImMGs6/1bd9+nfyWQ3JNwrt9eXnMV3Ja4srX52HjDP1JZpKqKKMhCgn4aa2nyuDRxhdhTSZfFvkZ1E8luxIWST8MLHbE7On91Hxj/J4RFwro8wxdr4BaRcT6AGBfAkgwcqXHMZ5nkB7Qn2cEV2UjyOM+HOZQX1p9cZtXfmMNzvGJatBO4ln62LN296cyP7h1bYNRHSKWT9t6P9QLKldlkvPcCFRy58OymUHMfrXWJNmS3HWrWdETggp/EkiOiKnXWN2KOy8Xn46MQoE3EsACZZ7YwPLLCQwfD6os0AVO4nYR61+wy99sjplsIzE9uC4Z8QK9MPM8HeKiS9Sk93CnjFbe23k84zxO80ItbNvSM82VGzY9ux4OrvOiJyQVfhL5lc2LfHiT7GkdrIlkoeFDm0J1oYvJ8Z+VqDP7bGkVmWlrZANAl4igATLS9GCrdIIpBLl/0ikPCpDIGf8lv5t02+1asswlQh/goj9QoatMmRw4hsn0+AHxXaQ2FLq10tnDJI+XSkSCWB2NtMVUb/JDcngeO6+qhD/clZRell2sHcwS3tKM6HdkVe1vZ0LK6v0ouwmp866jWWwQtnTK5PbNsqI3aEyDmwJltxJxD8pQz4rCh0Xfb7zDRmyIAMEvE4ACZbXIwj78yKQqlW/TYy+ltfgsQZxejbD9aU1G3rS0mQOC0ol1N8R0d/JllugvJED9ybPrxWo1drhotxAxk3J1ZC7nK2KNadFmQSprbWu4vgiXf+1zLpqjNFF0SZNbDOigUDgCSDBCvwUCCaA9oT6X+IxYMne7+QKuzi+Pj3u9pNZfV0LIuXZEt5tdhz6+4pAezSpVcuqw3agrlf444zYzwvcEjwcMqevxZq1f/MVfTgDAnkSQIKVJzgM8zaBVCK8kYidZoUXjPjNvXu6V56wmfYXKj9VF15OnN1WqByM9zYBRvzcaLJbrGQW1HrOnDttIKvcSZxdUZCgcQYzTv8ZbdYut0I2ZIKA1wggwfJaxGCvFAKphCoeMp4qRdjYQhqLiS+d6DC4Ed3tifCLjNhCI33Rx78EOKOfx5u0TxXiYefCOcfpoaLfyNwSHMOeZCypiRIdaCAQeAJIsAI/BYIHoL2+/CimK6LCuNVth64rF1dt6HouH0Udp889lodCW/IZizG+I/Durj3anHxWRYe2BGvVpYzRfdK3BA/HvCOW1Ob4jj4cAoE8CCDBygMahnibQFui8lyFsuts84LR13ft1r5n9stR+kF82xyGImsIsEtiybS4oWm4dTeUT93fp/yQiK4yPKjAjnpRNlr1/LZCS6AUaAWGg4DzBJBgOR8DWGAzgfY69V8YpztsVvtMUYiWRl7QDB1YH6pNlFDFdfejbLYT6txKgNOvY83ahUbNS9XOPYZY6Ld2zyHG6O+jTdr/GrUT/UDArwSQYPk1svBrXALtdeqdjNPnHUC0QyH9ospkzx9z6e6oDy/iOns+Vz/8e6AI7OdKX0V8/e4dE3ktkvPOhHopJ7rfhi3Bw03J83HwQEUSzgaCABKsQIQZTo4mkEpE/kDEP+AYFUb/umu39v2xtgxfm08lU6dEjg4pXFx1N7xa4ZgvUGwvAc5WDRK/a95krZ010uChysWW4ECfcgcj+n/2GjZKm0V1uxzzB4pBIE8CSLDyBIdh3iWQSqgdRFTpsAf/F9rPlla8nO7pXFg5WVcyx5DCriVi/2Tx7UaH3YZ6SQR2MOK3ZrNs7Z592psiWW9PlB/NSPkfu7cED/WHEz0dT2qLJfkJMSDgWQJIsDwbOhieD4G/JGZPL6PiXfmMtWCM2Op5gohEUuWniugWoILICQiICvTi2SeXzCOeiiW744gYCASdABKsoM+AgPnfVltxusL0DQFzG+6CgK0E+mZPKz36qbcGbFUKZSDgMgJIsFwWEJhjLYGOWvVqzuhea7VAOggEmwBX6OT4eu1PwaYA74NOAAlW0GdAwPxP1anfIU5fDZjbcBcEbCWgc/p4VbP2oK1KoQwEXEYACZbLAgJzrCWQSkR+RcT/wVotkA4CgSfw7VhS+3rgKQBAoAkgwQp0+IPnfCqhvkpEJwXPc3gMAvYR4EQPxpPax+3TCE0g4D4CSLDcFxNYZBEBfgmFOtrUw2oHWaQOYkEgsAQ48Y3xZPfpgQUAx0GAiJBgYRpYSkDUeCou3R/K9JdkKzd27rNUWQ7hw3WC3nTSBugGgYAQ2B9LapOc9rXnzLnThA3vFk/N1DS29jttD/QHiwASrGDF2xZvWxqqSyft23e+rrBvEqcT31fK3lS4fiNli9Y5kWylatUPE6Nf2wIBSkAg4AT0ED+q6oXut+3G0Lmwcq4eGvwoMXYzEVWM0t/IGd0Yi2svskcpa7dd0Bc8AkiwghdzSz1uWxg+Uiliz+WolL5fJ7Y8MzjwwJEbd9pW9DOVCH+RiP3AUgAQDgIgMERAp9DiqmTn03bhaDmjPFIUCl3LOBeJ1URtfWZg4EM1m3p77bINeoJJAAlWMONuiddtp6snKiHaaKIq+f6/GrKCeNFPY80d2y0xapTQVEL9DyK63Go9kA8CIEDEOPtCtDl9l9Us2uvnRJle9A0i+rQJXa2ZgYEFSLJMEENX0wSQYJlGhgFjERDbgsV9fa8TUXVehJj+b4MZflf1xm1deY03MCiVUP9IRGca6IouIAAChRP4aSypXVO4mLEldC6qmKcP6ncSo4/ko4NxtrayOX0BE4ttaCBgAQEkWBZADaLIVK36VWL0HQm+/4Tpoe9EN3S2S5B1kIhUQt1GRHNky4U8EACBwwlw4n+IJ7vPksmGEylb6yqOLdL1e4nRooJlc/bhWHP6twXLgQAQGIMAEixMCykEUglVHGY9QoqwA0KeVAZDX6jY2NnOiHihclO10TnEBkWChQYCIGAPgc5YUovKUCVKrHRtrVjAmX4PJ5JW/oETPR5PahfLsBEyQOBQAkiwMCcKJpBKzI4RFUtfcRoyjNMLSnbw6oqN298oJNFK1at/Szr9b8HOQgAIgIBhAiV79GnhzT3vGh5wSMfX5s8vmT5jx6lM139BxI7NV84E47bFklq5BXIhEgRQBwtzoHAC7XWRBsb5M4VLmlDCq4wpV1XGu17J54p1e536KcbpZxbbCPEgAAKjCXC+KNbcvd4slPb6WJnCM2dyTvfnuJFsVvRh/QtNAgs2AAJ8SwArWL4NrX2O2ZRgjTi0hTh9bte7c/54wubN4hZizsaJWKpO/SHj9PmcndEBBEBAHgHGPxtr6r7HqEBRmDhbPHge42wNEQ0VCbW66UXZaNXz2zqt1gP5wSOABCt4MZfusc0J1oj9nYzRFftLy/44UYXm1oVzK4pDRf/OGT9PuuMQCAIgYIAAvzszsP9rE5VE6G4onzrQxz7OOPshMbK1AnwsqeF70EAU0cU8AUws88ww4hAC7fXqSUwn8YiyE22PooQ+qezN/i7yqrZ3xIC3F86aMam45GbitMwJo6ATBEDgYAKc0acHS8v+Y/QPopZTZ84sLpn02b/WJf2G3YnViHVIsDBTrSKABMsqsgGS21IXqS7mvMVRlzkNcIW+QKz4V8Qz/8B0usupD2xHOUA5CLibwDZdVz5aUqxvyWZpGSe60WlzkWA5HQH/6keC5d/Y2uaZKxIs27yFIhAAAR8R2B5LanN95A9ccREBJFguCoZXTUGC5dXIwW4QCDyB1lhSqwk8BQCwhAASLEuwBk9oKqEWXAw0eNTgMQiAgMMEkGA5HAA/q0eC5efo2ugbEiwbYUMVCICALAJIsGSRhJzDCCDBwqSQQgAJlhSMEAICIGAvgcZYUjvHXpXQFhQCSLCCEmmL/Uwl1CwRKRargXgQAAEQkEkACZZMmpB1EAEkWJgQUgikEqoo01AtRRiEgAAIgIAdBDg9G2vWGuxQBR3BI4AEK3gxt8RjJFiWYIVQEAABKwkw+n2sSfs7K1VAdnAJIMEKbuyleo4ESypOCAMBELCDAOP3x5q6r7RDFXQEjwASrODF3BKPUwn1L0R0lCXCIRQEQAAELCHA18SS3VdZIhpCA08ACVbgp4AcAKlatZEYnS1HGqSAAAiAgA0EsIJlA+TgqkCCFdzYS/UcCZZUnBAGAiBgCwF+dyzZ/TlbVEFJ4AggwQpcyK1xOJVQnyEi3MaxBi+kggAIWECAM3ZLvCm9wgLREAkChAQLk0AKgY469b85p4ulCIMQEAABELCBABIsGyAHWAUSrAAHX6brqbrwGuLsCpkyIQsEQAAErCSABMtKupCNBAtzQAoBJFhSMEIICICAnQQ4vzbW3P0TO1VCV3AIIMEKTqwt9TSVCN9HxFBPxlLKEA4CICCVAGNXxZrSa6TKhDAQGCaABAtTQQqBjtrwzZwxHBaVQhNCQAAEbCHA2ZWx5vT9tuiCksARQIIVuJBb43B7XWQF4/xma6RDKgiAAAhYQIDzK2LN3b+wQDJEggBuEWIOyCGABEsOR0gBARCwjwBn7Jx4U7rRPo3QFCQCWMEKUrQt9DWVCH+diH3TQhUQDQIgAAJSCSDBkooTwg4hgATLw1OCN1BR22DVNH2gb5JwY7LCOCvje8sbe/YxIt1O11J1kSuJ8/vs1AldIAACIFAIAScSLH4Jhd5qmz1lOhWV6SGlqj+Tbdf1wb4jNu7cY/fndiHsMDY3ASRYuRm5rgcnUjoSkbOJ+GNENGMMA3dxYj8jyv60tIin5z6/ba/Vf7ip2sgVxDhu47hutsAgEACB8QjoXDmrqrnrD1YSEgnVO+/Mmlo8adIxSpZ/kYg+No6+duL8I9Hm7lcZEbfSJsi2hwASLHs4S9MiVq0690V+zRk/z7BQTgOc0f08S3eWTcputSLh6qhVr+aM7jVsEzqCAAiAgMMEuKIfHV/f85ZMM8Rn9Dt7Zk0pDpUerTD9SxMkVOOp/XY0qd1s9Y9imT5D1tgEkGB5aGZwItZZp/6q4CdpRiVcU0KZttlVO/ayRymbL4q2ReqJyiC9SIyGtirRQAAEQMAjBNq50ndqfP3uHfnaO5JQTQqVLCTGv0TEzs9X1sg4TnRTPKmtLFQOxjtLAAmWs/xNaW+vU/+ZcfqpqUHGOz+cJeX7k4syb86t3LbPSMIlEr5UIvwPjNgvjatBTxAAARBwEYGhH5z6SfFkz1+MWPXiQiqek505pbS0tD7L9S/ISKjG0suJnxJPdr9qxCb0cScBJFjujMthVolkpiOhbiWiuE0mP0Sc/7CMDb42u2zHPtZIg6P1Dp0Dq1VvJEbfsckeqAEBEAAB6wgo9JHYeu03hyoYSagmlU1u0PWs2PI70zojRklm9JtYk/YRW3RBiSUEkGBZglW+0I768CKus+flSzYs8X84Y9+fzPe/tLts+v7ivr7VRHSN4dHoCAIgAALuJ/DVvtnTVhV1bSsrLim5kBj7tG0J1RhslMHQlMqNnfvcjw0WjkUACZZH5kWqLvwZ4uxuj5gLM0EABEAABAok4EQZiQJNxvCDFiGBwxME8NafJ8IEI0EABEBAGgGd6LKqpPaQNIEQZCsBrGDZijt/ZR2J8Dc4sVvyl4CRIAACIAACXiKAFSwvRetwW5FgeSR+qbrIpcT5wx4xF2aCAAiAAAgUSoBnj401b3uzUDEY7wwBJFjOcDettfPMyip9MCtuEaKBAAiAAAj4n8COWFKb4383/eshEiwPxTaVUDuIqNJDJsNUEAABEACB/Aj8TyypXZDfUIxyAwEkWG6IgkEbOurU/y64irtBXegGAiAAAiDgHAHG2Q3R5vT3nLMAmgslgASrUII2jm+vU/+FcbrDRpVQBQIgAAIg4AABPaScXfVC13MOqIZKSQSQYEkCaYeY9jo1wTg12aELOkAABEAABBwjwDNlZZNrGlv7HbMAigsmgASrYIT2CkglVPEos2KvVmgDARAAARCwjwB/KZbsXmifPmiyggASLCuoWigzVas+T4wWWagCokEABEAABJwkwOj2WJO23EkToLtwAkiwCmdoq4RUQv03IrrJVqVQBgIgAAIgYB8Bxj4Wa0o/Yp9CaLKCABIsK6haKLOjTr2Qc3rCQhUQDQIgAAIg4CABpSg0r/L5zjYHTYBqCQSQYEmAaKcILRFWM8TSduqELhAAARAAAXsIcKKWeFI7wh5t0GIlASRYVtK1SHZ7Qn2HEdVYJB5iQQAEQAAEHCLAiR6MJ7WPO6QeaiUSQIIlEaZdolIJ9d+J6Cq79EEPCIAACICAPQQ4o+viTdoP7dEGLVYSQIJlJV2LZKdqw9cQYz+2SDzEggAIgAAIOESAM6qLN2lJh9RDrUQCSLAkwrRLVKo2fAoxtskufdADAiAAAiBgCwEeS2qoc2gLauuVIMGynrElGlIJdR8RlVkiHEJBAARAAAScINAYS2rnOKEYOuUTQIIln6ktElMJ9f+ICH+IttCGEhAAARCwngAjWhlNaqhzaD1qWzQgwbIFs3wlHbXhmzljK+RLhkQQAAEQAAEnCDBGF0WbtCed0A2d8gkgwZLP1BaJbbXhxQpja21RBiUgAAIgAAKWEygmHlGT3ZrliqDAFgJIsGzBLF9JS0P1zOK+vp3yJUMiCIAACICA3QRQYNRu4tbrQ4JlPWPLNKQS6mYiOt4yBRAMAiAAAiBgEwG+JpbsRn1Dm2jboQYJlh2ULdKRSoTvI2JXWiQeYkEABEAABOwiwPm1sebun9ilDnqsJ4AEy3rGlmlI1UauIMbXWKYAgkEABEAABOwhwPmpsebuV+xRBi12EECCZQdli3R0nD73WB4KbbFIPMSCAAiAAAjYQ6AvltQm26MKWuwigATLLtIW6Ukl1B1ENMsi8RALAiAAAiBgMQHG2dpoc/p8i9VAvM0EkGDZDFy2uo7ayFOc8fNky4U8EAABEAABewgwzldEm7tvsUcbtNhFAAmWXaQt0oOCoxaBhVgQAAEQsImAzvl5Vc3d62xSBzU2EUCCZRNoq9SkatVlxGiVVfIhFwRAAARAwFoCTOFnRtd3v2CtFki3mwASLLuJS9TXUR9exHX2vESREAUCIAACIGA/gX6uFEfj61PiTC2aTwggwfJoILd+oGpWKDPQSUSlHnUBZoMACIAACLxP4JVoUlvAiDig+IMAEiwPxpETsY6E+jIRneJB82EyCIAACIDA2AR+Gktq1wCOPwggwSogjiLRoUtI6UipDe+JyRZtis7r6B1T7KMH/TI56FeKmV8tqYQqqv1+ugDTMRQEQAAEQMCNBBj/bKyp+x6jpg19Dx3c3v//Lzns34Z6plJzIoyKjhP/N+O8vzLe3USPkm7me8iofUHuhwQrj+iLCZ1KRFYw4t/IY7iRIVuI09CL6oyxfq5Q88ggzvVJjLOvGBGCPiAAAiAAAh4kwOhrxNj7xz+y/KwRLxijYzlRxAqvGKePR5u1B62QHUSZSLBMRr29Plam6Jl3rJrgJs1BdxAAARAAARCQSSAZTWr1WM0qHCkSLBMMkVyZgIWuIAACIAACniTAiK2LJtMoYF1g9JBgmQCYqguvIc6uMDEEXUEABEAABEDAewQ4/0ysufvH3jPcPRYjwTIYi5YzyiPFitJlsDu6gQAIgAAIgIBnCTCidDSpVXjWARcYjgTLYBBSCfV6IrrdYHd0AwEQAAEQAAFPE+CMnRNvSjd62gkHjUeCZRA+tgcNgkI3EAABEAABXxDgRDfn2P4UAAAgAElEQVTFk9pKXzjjgBNIsAxCT9WqjcTobIPd0Q0EQAAEQAAEPE2AM3ZLvCm9wtNOOGg8EiyD8NsT6mOMaInB7ugGAiAAAiAAAp4mwDhfEW3uvsXTTjhoPBIsg/A7EuqtnOhGg93RDQRAAARAAAQ8TUBntLSqSXvY0044aDwSLIPw22rDixXG1hrsjm4gAAIgAAIg4GkCmbKyWTWNrWM//eZpz+wxHgmWCc6phNpCRNUmhqArCIAACIAACHiRwEOxpHaZFw13i81IsExEoj2hXseIVpsYgq4gAAIgAAIg4EUC9bGk1uRFw91iMxIsE5FoaaguLe7r20lE7z/CaWI8uoIACIAACICABwhsiiW1BR6w09UmIsEyGZ5UQhXFRkXRUTQQAAEQAAEQ8B0BHG6XE1IkWCY5ttRFqos5F2ex0EAABEAABEDAbwR6Y0ltlt+ccsIfJFh5UEdNrDygYQgIgAAIgIDrCXDGbow3pb/rekM9YCASrDyC1F4XaWCcP5PHUAwBARAAARAAAdcSQGkGeaFBgpUny1RCfZmITs1zOIaBAAiAAAiAgLsIMPbjWFP6M+4yyrvWIMHKM3ap2sgVxPiaPIdjGAiAAAiAAAi4i0CoaEHshY5N7jLKu9YgwSogdqmEKko2zCxABIaCAAiAAAiAgOMEGGdro83p8x03xEcGIMEqIJgdteGbOWN4abwAhhgKAiAAAiDgPAFGtCSa1J5w3hL/WIAEq4BYtjRUzxwuPFqAFAwFARAAARAAAUcJbIklteMdtcCHypFgFRjUVF14DXF2RYFiMBwEQAAEQAAEnCKwLJbU8AycZPpIsAoEmloUPZWyg+JGIRoIgAAIgAAIeI1A/3Bphn6vGe52e5FgSYhQqlZtJEZnSxAFESAAAiAAAiBgJ4E7YkkNz79ZQBwJlgSonbXhJTpjj0kQBREgAAIgAAIgYBuBDGM1NU3pVtsUBkgREixJwU4lVPE+YbUkcRADAiAAAiAAApYS4ERPxJPaEkuVBFg4EixJwU8lVLHEerskcRADAiAAAiAAApYS4IydE29KN1qqJMDCkWBJCn5LQ3XpcMmGUkkiIQYEQAAEQAAErCKwKZbUFlglHHKJkGBJnAWphCquuV4nUSREgQAIgAAIgIB8AoxdFWtK47k3+WTfk4gESyLclrpIdTHn4iwWGgiAAAiAAAi4lUBvLKnNcqtxfrELCZbkSLYn1McZ0UWSxUIcCIAACIAACEghwBm7Jd6UxjNvUmiOLwQJlmTA7XWRBsb5M5LFQhwIgAAIgAAISCEwXFi0V4owCBmXABIsCyZHKqGKyu6nWiAaIkEABEAABECgAAJ8TSzZfVUBAjDUIAEkWAZBmemWqotcSZzfZ2YM+oIACIAACICA5QRCRQtiL3RsslwPFOAWoRVzADWxrKAKmSAAAiAAAoUSQO2rQgkaH48VLOOsDPdMJdSdRDTT8AB0BAEQAAEQAAE7CHB6NtasNdihKug6kGBJngFYvZIMFOJAAARAAASkEsAqllSc4wpDgiWRM6q5S4QJUSAAAiAAAlYRaIoltXqrhEPuAQJIsCTOhPa6yArG+c0SRUIUCIAACIAACEgnoHB+cWVz9+PSBUPgewSQYEmaDFi9kgQSYkAABEAABOwggLcILaaMBCtPwCKhCvX3L2WcX8SIluQpBsNAAARAAARAwEkCvcT4EworerxyfSdWtCRGAglWDpgikSrp61vCDzx/IxKpUon8IQoEQAAEQAAEXEeAEaWzjImn3x6ON6UbXWegBwxCgjUqSJ31lUt0PriEOBPJFMoseGACw0QQAAEQAAFbCbQS0RMUKlqDgqUTcw9kgiXeC+ScLw0RXcSJIrZOTSgDARAAARAAAf8RaGWcHt6fHVxTs3H7Fv+5Z94jXydYLQ3VM0v6+m7gREuJqNo8HowAARAAARAAARAogMAWhegnlUltdQEyPDnUlwlWyxnlkWJFWY+kypNzEkaDAAiAAAj4kUDAqsj7LsFKLYqeStnBl/04N+ETCIAACIAACHicQH9G12tqNvSkPe5HTvN9lWANr1x15fQaHUAABEAABEAABJwi0BpLajVOKbdLr68SrPaEKq6UihuAaCAAAiAAAiAAAi4lwBm7Jd6UXuFS86SY5ZsEq3PhnOP0oqLXpVCBEBAAARAAARAAASsJ9MaS2iwrFTgt2zcJViqhXk9EtzsNFPpBAARAAARAAARyE+CMnePnIqb+SbDqwmuIsytyhxQ9QAAEQAAEQAAEHCfA2FWxpvQax+2wyAAkWBaBhVgQAAEQAAEQAIHxCfj9HJZ/EqyE+mMiugaTGQRAAARAAARAwAMEsILlgSARUao2fC0xdo83rIWVIGAdgfW799MA5/TSu4MHKYmVhCg+SaHTphXTJOab31bWgbRZ8u4spye399MjPX300ruZcbXXTy+hi+aU0iXlpYijzTGCOukE6mNJrUm6VJcI9M2nrHgWp7ivb6dLuMIMELCUQGogS//R3UeP9vRRd0YvSNdpU4vps5VT6LxZkwqSg8HmCTzS008rtu6h3dn8Y3hUaYjuPmoGzZ9SbN4AjAABhwgwonQ0qVU4pN4Wtb5JsAStFA662zJpoMR+Am/1ZWll+x5au3PAUuWTFKIvxqbSZyumWKonyMJFLC9/YyeJJFl2Wx6bSsujiJ1srpBnCYFlMZ+/T+irBKulobq0uK9PVHKfacl0gFAQsJGA2Cb65RF1tOyb36FTTz31IM2PP/443XTTTbRli3WP1p8wuYgePX42TS/y1ceEjRE8WNXkC5ZS6XW3UNn0GQf9Q2trK1111VXU2NgozTYkWtJQQpA1BJpiSa3eGtHukeq7T872+vLzmK485R7EsAQEjBMQZ6cu39JLi5d/lW6++eacA/v7++n888+X+uV8qFKxhfjo/Fk475MzGmN3mP65r9G0T3zB0OiLL76YRPIso4nVSJEgi/ihgYCbCGR0vQJvEbopIiZsSeFGoQla6OomAqv7ptAX1z1PkUjElFnr1q2j8847z9QYs51XzJtGn4pMNjsssP2VaTMo/NAfKTSn3BSDZ599lhoaGkyNmahzw8wSeuBYXxfMlsYKgmwgwPlnYs3d4ta/75vvVrBGItaRULs4kblvKd+HGw66mYB+1AkUf+D3eZsotpqOP/54EqtaVrWjSoto3cmzsZqVA3DL5Nl0+v+8RKWlpXmFYtOmTbRgwYK8xo41SKxmrT+1nMLFijSZEAQCZgkwYuuiybS1vwTNGmVhf98mWKmEWkdE6y1kB9EgII1AaE6YIr99tWB5sr+Yx/yyZkS/PmE2bq2NE61vbmd0x59a8k6uRsQ2NTVRfb3cYyo/P2YmLcZt0YL/ziAgLwL9mbKyWTWNrdb9AszLLOsG+TbBEsg6atWVnNEN1uGDZBCQQ0AkVyLJktHuv/9+uvLKK2WImlAGvqwPxjPAiepf7qEnnnue6urE77vC2x133EHXXy+eWZXXsNUrjyUkGSegE11WldQeMj7C+z19nWCJ8KQS6utEdJz3QwUP/Epg1tfvoMkXfEyqe5dddhk99JD1n2VIsg6ETZReWPynbXT9V26glStXSo2lWMUSq1ky29WRyXTLvGkyRUIWCIxPgPH7Y03d1v/qc1kMfJ9gtdRFqos5b3EZd5gDAkMESk5cSOX3/lY6jd7eXpo1y56DzU+fGOztQlFO48LXdtDMmTOpq6ur4K3BQyeDVdu+4sKCWM1CAwGLCfRmysoqgrQ1OMLT9wmWcLQ9od7IiG61eBJBPAiYJjD37v+mSactMj3OyIBly5bR6tWrjXQtqE+QD1Cv2zlAV7/ZO8RPsL7uuusKYjneYJnlG0brwHahJeGC0FEEOGPnxJvS8oq8eYhuIBIsEY9UQn2GiOTdffZQkGGqOwkUH30ihf/jfy0zzs5VLHG7sPGUOZb54kbBombZ/Be7aWD4lZu+vj7pq1cjfosipOecc44lGJpOnUuxSSFLZENo4An8JJbUrg0qhcAkWC1nlEeKFUVUeUcDAVcQmHnD92jKxZ+01BarVj7GMvry8GRaWROcLSfxhuC96X1DKJYuXUoPPvigpbGsqakhUYpDdgta3GTzg7xxCbTGklpNkPkEJsEaWsWqi1xJnN8X5IDDd/cQqHxuK7ESax9YfuKJJ2jJkiW2OS0qh9dP93/lcPGOYN2mbe9xFdXXL7roIks5W7nlu3lhGE8iWRq9AAoPFS2IvdCxKYCev+dyoBIs4XVHIrKWE18c5KDDd+cJ9J9ST0f+5DHLDRFFR8vKyizXM6JAbDWJLSe/t0+92XvQw9tWbg+OsLSyWj/eLvT7jLXXP87YLfGm9Ap7tbpPW+ASrOEHoXcSUX4llt0XQ1jkQQIvfPQLdMmXv2aL5VZc85/IcL8fnF6/J0OXbN7xHgLxEPfLL79seSytTJbFg95iFQsNBCQQCMRDzkY4BS7BElA6a8NLdMasXz4wEgH0CRwBcfMs+sOHaPFiexZSrdxaGit44lbh5tNVmuTTT5dLXt9J63fvf891UdT1vvvsOXlg1Tks4cyqI6bTpeX2rXYG7g8/IA5nGKupaUrLPyzoQX4+/QjMHYlUXXgNcXZF7p7oAQJyCYgv6P965Q2qrq6WK3gcaXZVdh+t3q9bToeuXgmfV6xYQTfffLMtsRQ3CcWNQivaaVOL6ckTZlshGjKDQiBADzkbCWlgEywBBw9CG5ki6COTwEhRSs65TLETyrLyiv94iqcXKbR5YbltPtql6PI3dlJj7/urV0LvmjVr6Ior7PmtdtVVVw3ps6oFvWisVVwDIrcxltSsqSXiUYCBTrDa6yINjHNRHwsNBGwhIA5Hb5lRQS0t9j0uYMWjwUZgrayeRperk4109USfzfsydO6f3j97NWK0nQmW1du9qO7uianoRiPFQ86iWvuBqrtoQwQCnWAJAHgQGn8JdhHYndVp/os9Q1uDdiZYonaSOLtjdzthchGtO8k/xUeXv72LHtnWfxhGsUJ49tln24L3lltuGdqStKr5deXRKl6Qe4BAEB9yNhL7wCdYAlIqoYrlBHsOxBiJCvr4ksCqjr20KvVuYBIsEUS/bDmJqu1HNnePOS/tXMGyOsESDj5w3ExqmGFtfTZf/oEH16mHY0ltaXDdH99zJFjiVuHCOcfpRUWvY4KAgJUETnuph7ozeqASLL9sOYmK7aJy+1jNzgTL6jNYwj9UdrfyU8CHshm/P9bUfaUPPSvYJSRYwwjxIHTBcwkCJiDQuGs/Xb5FlF+joffqRGFKu5oTh9xHfAsXK/TSad4/7H7haztIXFAYq9l5i9COp4+mhxTafLr3Y2bX3xf0DBNAonXYVECCNfSEDko24EPCWgKffWsXPbn9/fM7dlT+HvHo4YcfHnorz6kmrv6LEgBebW/1Zanh1fefxTnUj2uvvZbuueceW9w7/vjjacuWLZbrenT+bKqf5t2YWQ4ICsYloBD9pDLADzyPBhPYBCtVG76WGLPnUxF/jIEncOQGjQb09zGIyt+iArgd7bvf/S7deOONdqgaU8fnKqfQTfGpjukvVPGPOvfSre3vjiumoaGBnnnGnsvIjNnzke2Xrd1CY4/x+RNglL0smtz2UP4SvD/Snr9WF3FKLYqeStnB9Xgqx0VB8bkponL71W8efHvZb+d2Jgqh1wtYTrQ9KPy2a8vXznIbR5UWUeMp/rkB6vOPGNe6x4jS+xmrD2pl90AlWKmEKn5mNrh2NsIwXxK4sWUPPdC97yDf7NxWsvJ5FaMBSyVUo11d1W/3IKf5G8e+PTjaULGCJVayrGx2r0SKs3PiDB0aCEggcEcsqV0vQY6nRAQiwUJBUU/NSd8ZO3J7cLRjxx13HL3+uvUXV8V5HXFux+nWePIcOqqsyGkzTOsfa/VxLCHXX3893X777ablmxlg96PdPzpqBl00p9SMiegLAhMR6M0wtiBIq1m+T7DaE+rjjOgizHsQcILA5r0ZOvfPh1f/FrbYcQ7rjjvuIPHl73S7+6gZdKEHv6xFaQZRoiFXmzlzJu3ceeCWqBXNiUQZ5RqsiCRkcqKb4kltZRBI+DbBajmjPFKsKGKJYGYQAgkf3UlgovpJdqx6LFiwgDZt2uQ4HK8+/pzr/NVosI899hgtWbLEEtZWP5EzltF+q8RvSWAgNF8CTbGkVp/vYK+M82WC1ZGYu5RT6EGvBAF2+pfAoeUZRntq9arHs88+a/m5IKORu3RuKa06cobR7q7pF0tqhm0Rt0LFqqTs1tvbS7NmzZIt1pC8t2vDNMmmm4uGDEInPxHoz+h6Tc2GnrSfnBrti+8SrFRd5B7i/Fq/Bgx+eYtA3aZtlBrIjmv06tWr6brrrrPEqXPOOYdEkVE3tPrpJfTo8c4kCfn6L+Im4mem3XfffXTllXKLWttRvX08H1EPy0z00TcfApyxc+JNaXd8UOXjwARjfJVgpRKqKL9QJ5kRxIFAXgTEszjigPtETVzxF2d3xH/LbOvWraPzzjtPpsiCZJ0wpYjWneita/9GD7iPBiPi2NXVRWJ1UkZzehVy1RHT6dLyMhmuQAYIjEtA1/Wrqjb0rPEbIl8kWC0N1aUlfX0tnCjitwDBH+8SWL8nQ5dsHvuA+2ivxIqHWPmQ2SoqKiidds/Ke2xSiJpOnSvTRctlTXR+biLldXV1tH69+K1XWOvv7x/aGhT/7VRDwVGnyAdS77JYUlvtJ889n2C1NFTPLOnrex3JlZ+mpT98eaSnj5a/s9uQMzILj1522WX00EPuK6DstVpYqzr20qrU+BXcJwqsOOwuDr3n20RSJeqXOZ0kN8wsoQeO9dbWbr7MMc4VBHyVZHk6wRq+KdiCquyu+MOAEYcQMPsFLVY9xOpHIc2J22ZG7fVagrX87V30yLb8V4/yTbLcklyJuKKiu9HZjX4SCfgmyfJsgoXkSuJ0hihLCOTzBf3UU0/lfXbKzcmVABy0BEv4LM5iiZuF1dXVhubY2rVr6fzzzzfU145OopK7qOiOBgK2EmDsqlhT2vNnsjyZYOHMla1THcryJHDJ6ztp/e79pkeLh5lvvfVWw+PEioe4MSjeqnNz81qClW/8xoqBKOEgtgzHS7TEbc+LL76YREkGtzWvxc1t/GBPfgS4op8fX9+zNr/R7hjlyQSrI6F24cyVOyYQrBifQCFf0OI22uOPP06LFy+eEPFNN91EK1d6oyiy176oC4mfn/4uxOUEcUkBDQTsJpDR9Qov18nyXIKFUgx2T3Hoy5dAwyvb6a3+wXyHvzcuEokMVQgX/y2aeDZFJF9O3i7LxykkWPlQc34MEiznYxBgC1pjSa3Gq/57KsFKJdQfE9E1XoUNu4NFIFeR0WDRCOYZLD/EGAmWH6LoYR8Yvz/W1C23eq9NODyTYKVqw9cSY/fYxAVqQKBgAov/tJ1e21f4ClbBhrhEgNdWsPK5pOAS1FLNQIIlFSeE5UFAJ7qsKqm5r/ZMDl88kWB1LpxznF5UJB5uRgMBzxDAGZ73Q+XFQqNmy2x4ZmKaNBQJlklg6G4Fgf5MWVlFTWOr+26BTOCtJxKsVEIVta6M3XO2IrSQCQJ5EECC9T60EyYX0bqTvPVUjplCsXlMD88MQYLlmVD53dCHY0ltqZecdH2ChXNXXppOsHU0AWwxvU/DixXBjT515PdZ77WtXb/HI8j+ee1haFcnWO11kQbG+TNBnlDw3bsEsMX0fuwuD0+mlTXTPBXM3YOc5m/s9pTNso1FoVHZRCGvQAKbYkltQYEybBvu6gQLW4O2zQMosoDAup0DdPWbnjoyYAGFAyJXzJtG4uFgr7Wg3wQ9bWoxPXnCbK+FDfb6mYCHqry7NsFqT6g3MiLj5az9PKHgmycJpAayJL6g0YgePX421U8v9hyKoG/zXjq3lFYdOcNzcYPBvibgmdpYrkywWhqqZxb39XXhEWdf/5EEwrnTXuqh7oweCF8ncnLz6WGaHnLlx82EsQn6Qfeb4lPpc5VTAj9/AcBdBLxStsGVn3iphLqaiK5zV0hhDQiYJ/DZt3bRk9v7zQ/00YijSkPUeMpcT3q0O8tp/ovBPYf16PzZVD/NeyuPnpxsMNoMgaZYUqs3M8CJvq5LsIZXr3Y6AQM6QUA2AZFciSQryM2LB9xHxyuo5TYmKURvn6EGeerCdzcTCBUtiL3QscnNJrouwcLqlZunC2wzS2CAczqyObgrIILX3UfNoAvnlJpF55r+D2h9dGPrbtfYY5ch582aRPceM9MuddADAmYJ3BFLatebHWRnf1clWC0N1aXFfX1i9cq7n8Z2Rg+6PEEg6NuEb9eGaRJz1UeNqXkjkmSxTTgQsKN0Xk+MTQUZnb1IoDeW1Ga52XBXfeqlEqrIRm93MzDYBgJmCQS5YKUXC4yOFd8VW/fQvel9ZkPv2f6TGNHbtdge9GwAA2I4V/Tz4+t71rrVXbclWC8T0aluhQW7QCBfAov/vJ1e2xu8h5/9sgoStJIbomaZqF2GBgIuJ7A6ltSWudVG1yRYqUXRUyk7KBIsNBDwHYHGXQN0+ZZgFR312yHpINXE8mpZDd99cMChXAS2xJLa8bk6OfXvrkmwOmrVlZzRDU6BgF4QsJpA0G6j+W0VZHdWp/kv9lg9TRyX77e4OQ4UBlhKIKPrFTUbetKWKslTuGsSrFRCfZ2IjsvTDwwDAdcTaB/IUn2AKrv7cRXE7+9LilVHETcvX0pw/QcBDJRKQOH84srm7selCpUkzBUJVktdpLqY8xZJPkEMCLiWgN+/oEfA+3kVpOGV7fRWvz/P0/nlzJxrPwBgmHQCnLFb4k3pFdIFSxDoigQrVRu+lhi7R4I/EAECridw4Ws76KV3M663M18D/b4K8lZflhpe9d8bk14vCJvvfMU4bxNgxNZFk+nz3OiFOxKsuvAa4uwKNwKCTSAgm4Df6yrdWjONPhGeLBubq+SJkg2idINf2gmTi2jdSXP84g78CBYB1z7+7I4EC+evgvXnAG9p894MnfvnHb4jUT+9hB493tW1/6Qxv7FlDz3Q7f3aWOFihdYvKCdR+woNBLxIIJbUXDl7HTdquHp7nxeDCptBoBAC63YO0NVv+qd0g9gafPm0ME0POf6xUkhYTI391Ju9tHbngKkxbuocmxSiZ0+Zg0PtbgoKbDFNIMNYTU1TutX0QIsHOP5JiPpXFkcY4l1NwE9J1pMnzKbTpha7mrds48R2b/3L26g74713dC4Pl9HKmumykUAeCNhPwKUPPzueYLUl1KUK0YP2RwQaQcAdBMSBd3Hw3ctt1RHT6dLyMi+7kLftXjv0LlYa1504l44qC+XtMwaCgJsIcMbOiTelG91kk7DF8QSrPaHeyIhudRsY2AMCdhIQT7Gc/eo2Tz4oLJ5UEWUZgty8shJ56dxSWnXkjCCHCr77kAASrHGC2l4XWcE4v9mHMYdLIGCKgNhuuvDPO+m1fd4p4SC2mMRWExqRm5MscdZKbOGKA+1owSDwzj5Gr+5hpE7iVD+T+9tpxq6KNaXXuM1Jx1ewUijR4LY5AXscJuCVYqRBPHOVa2q4LckS24EPHDeb6qcF62xcrjj58d/3c6LG7Yx6M2N/rTfM4RQu8WmihQRr7CmNBMuPf+rwqVACYstQnMty4+FpsRry9ElzAnVb0Ew8RQmOj2ze4fh27+1HTKdLAnouzky8vN53X5bRM9sZ7c3m9qR6MqfaGT5MspBgjR38jkRkLSe+OPfU8G4P8Ytid5aoqtSHE9u7YfGE5W4raHlT1VT6XMUUT7Bz0sgBnQ8lyK/ts/dJHbFi9fNjZlHDjBIn3YduGwiI75XGHYz2m7jAWqoQXaiaGGCDHzJU4AzWOBRTtWojMTpbBmQ3yujNED297f1zD2KJdtFsTiWOb866kRZsGo/AZ/+yi57c0e8YIFF+4dH5s1GM0mQEGnftp8u37DQ5ynx3UYn93mNmUnwSbgaap+etEekBoqZexVRiNeJhtJTTmbP890MfCdZ4CZbPz2Bt2s3ozb2HZ1MKI1owjdORU/w32b31ceUda8UheFGYtLF3v21Giy9ukVgFqXioFXAf7emjG1t3S902nF6k0MrqaXThnFIrTIZMlxFo7WPU3FvYL/OTp3M6zoffOcrg4PGVG7dvcVnInC/T4PczWGIZ9+ltE/9RzCwiqpvFaXoRki23/YG41Z5b29+lH3Xutcw8UXZBlF9Ak0tAnKkTbxg+uT2/1cjzZk2i5bGpNH9ykVzDIM21BDbtVuhNSX/qfj3ojkruAV3BEm4/3cOod9DYL48jJ3M6dTqnAL024toPNi8YJg5Uf/at3fRWf+FnfS4PT6avxqfS9CJjc9ULfNxuo1iVFCuS4qxW936d3u4fpBlFylACVV6s0MIpRTR/Cm4Auj2Osu0TNwKf38GoZ7/cv8WPRnRffrfgLcJxZmAQ6mCJLUKxVWimiS3E02dwqi7DqpYZbkHu27hrgMQDxOIGYq42PaQMbS19KlJGR5VhNSQXL/w7CNhBQOx4PL/T2I1As/bMLOJ0brkvv09aY0mtxiwPO/qb+9a3wKJUXeRK4vw+C0S7RqS45fG4ln+BP7F1WDuTaHaxL/84XBMnPxmyO8uHtqF2ZXU6bUoxnTClGOeo/BRg+OIrAuJ81Yu7GOkWfsSL3ZGFfizRQNQYS2rnuHFCOJ5gtddFGhjnz7gRjkybxK+Sjv7Ccc8u4fSBmZxKcVlIZnggCwRAAARsJSCSqfW9cr4XjBheO9O3OyJ3xJLa9UYY2N2n8G/8Ai1uqYtUF3PeUqAY1w8XyZVIsmQ2UTROnNdCyQeZVCELBEAABKwjILYBn9vBqN/mclTnlfv0IpVLi4yKGST3Gz/POZlKqH1E5Pu7xmKb0ExRODM4j5nC6eRpnMTZLTQQAAEQAAF3EXh1N6MtY5TsscPKEoVoiQ8LjA6xCxUtiL3QsckOjmZ1uOLrOMSX06wAACAASURBVJVQ1xNRnVnjvdZ/vJpYsv04fiqnE6Yi2ZLNFfJAAARAwAyBPYNi54Jot8Fb5GZkm+kbmcTprNkWHvAyY4zkvm69QeimFawfE9E1krm7TpyRmliyjT5uKqcTkWzJxgp5IAACIDAugdf2MHrtXVesXwzZKH5wnzDNhwkWp2djzVqDW6eiK2ZAW0JdqhA96FZIMu0yUxNLpl4hS5zZEtXji/O/0CjbJMgDARAAAV8RcFtyJeCK1SuxiuW3xjh9N9qs3ehWv1yRYAXloLuYBPnUxLJi8og3qRZOx21EK9hCJgiAQHAJyLoxLpPghWHdlzfP3foG4UjsXJFgCWNSCfV1IjpO5qRyoyxRoffxtLuWkHx8fdeNUwA2gQAI+JjAb7sV2pu71q9tBKaEiC4I23xl0R7v+mNJrcweVflpcVOCtZqIrsvPDW+NctsvHHFOS9xARAMBEAABEMifgKht9UuX/YCuKuVDb936rXGiJ+JJbYmb/XJNgtVeX34e05Wn3AxLlm1W1MQqxLZwCSfxCCgaCIAACIBA/gTE24HPbHfN1+qQI6JWoijj47vG+Wdizd3igpxrm6tmQiqh7iSima6lJdGwx9IKZVwy531dI0VizCAKBEAABCYi8Je9jF42+e6s1UQb5ugULrFai/3yM2Vls2oaW3vt12xco9sSrECUaxDh2biL0dv73IP//HKdpuHNX+N/OegJAiAAAocQaOpl1Nbnns91Yd6lFT48f+Xy8gwj08JVMyGVUEWxUVF01Pdt+35Gv3fRUjIOuvt+ysFBEAABiwm47YD7zCKic8v9mGC5f3tQTDVXJVjCoFRCFe8SVlv8d+AK8W76Y6yZzOkMf7607opYwwgQAAF/E9iXJfpNt7tuiB85mdNCH36ue2F70JUJVntCvZER3ervP8UD3jn5NtWhfKcXcRKPgaKBAAiAAAiYJ9Dax6i5111rFrUz+FCBaT81L9weHOHtrtlARC0N1TOL+/rEYXffN/E+1doe94Tgw2GdJod8jx0OggAIgIB0Aht2MWpx0bla4eC5cznNLPZZgqXo58fX96yVHkALBLrn232Uc6m68Bri7AoL/HWdyKd7FOoddIdZTpzDEgf92/to6J2sch/edHFHZGEFCPibgLiRveVdRq+/y8ipwppPdivU76ICoyLiPjzg3htLarO8MpvdmWAtip5K2cGXvQKxEDvd8nSO8KGqjFPdTHt/7WQ50a8OKcwn6nKJ4qeRSYWQxVgQAAE/E+jZT0MlEXozB3+NOfGwsfiRLH4su6mJH6znzPHXAXfO2C3xpvQKN3GeyBZXJljC4PaE+jgjusgrIPO1c79O9Ljmjj9Mp+phiXML4vzCeG16EQ0lXNVl9iZ/+cYU40AABOQTEKtU4iFl8aN0onZBmNOUkL2fFVv2sqEztW5qR0/htGC6vRws9r9/+HB7v8V6pIl314wY5VYqQKtYz+1QKD0gLaYFCRK/eOzeqjNbsqI0RCRux4jqxMWuncEFhQGDQQAEiEgU7nx9LzO89RYtJTpzlv2rNqLkjvgcc1Pz2wF3r61eibngrhlxyOwMyipW6z5GzbvcEQqRtIinFexuv9+m0PZM/lrF9qb4xTanOH8ZGAkCIOAsgY5+otfePXzbz6hVZ80WRwvs/fwSK2viZY5xWpoUtox0fo/dr5SIW+HidrhPmudWr1yfYAVoFav/kS7lJ2547FqsDl3owMvrst9nHFnlEitdpe7YgfXJ5xzcAAF5BApNqEZb4lRRTXFRR7zMMaptYVnl/13f0dHEiPiqeOVFxPjj8qjllqQwon+M2L+Sl9uyvHssiyW11XmPdmigO5ZNJnA+KDcKFc4vfqir6AZiXFSzd7T97VzdkZUgqwuviuvKx0whEq/Liw8gNBAAAfsI6JyopY8N3fbba8FtuzNncYqW2r9i89wORtoAPUxs0rJlW7d2HUp01bzIg8TZUvtI09AxDx8dcPfUzcHRcXb910zLGeWRYkU5bNLaOVnt0MWJHv+5VnbZdH1A+Orog9dObRM6sVU6p4TTkZORdNkxx6EjWAREZXNxfkr8XYvbwlY2p1aviGjCL/8V1dWl0/WBPit9H0u2rw64M3ZVrCm9xm6GMvS5PsESTqYSqlgavE6Gw26WkSkrK3v8L5njeEh3tESFU7cJRWzcUBdM3FoUH1Di1zC2F938FwPb3EJArE619R9YndrtQF0/p1aviOiOWFK7frw43FZd+TGm84fsjpOPDri3xpJajd38ZOnzRILV0lBdOlzdvVSW426UozNaWtWkPXxbPHIlY+w+J20UN3HEjRy7W/d+Ro0uegR7xH+RdMbL+ND2ot23LO2OAfSBQC4C7f2iajlResD5rxBHt8NCRQtiL3RsGo/XqnkVTxGn83LxlP3v55XrJH4oer2JozOVzd22nl+Tycz5vw6D3rQl1KUK0YMGu3uyG+NsbbQ5fb4wflVVhaOrdmL1RvwqdKKt36lQu0cqnYgPsZHEa5oPPtCciDd0upeAuCEnLqC8vY9cV4ZghJqDt+U2xZLagvGid3t19UyuD9j+7JtvDrhzejbWrDW4968jt2WeSbCEK0E48D76lfBV8yoaidPZucNoTY+LI7ojdaZE8VXx7ITYdvBiE39UItkS18XFQ6vifAgaCLidgKhGLm7EdfYz6rPgELoV/osCxCdPc+iDgvPPxJq7fzyeX7dVVVzDiMb9dyt4CJmOrujJdIrzRbHm7vUyRdoty1MJFidinQm1kxNF7AZlmz7Or401d4uSDbQqFisjJfsOOeSveB9QPDvhRBvj6rMTZkjVKf7YxK9LsToongESCRjOeElFDGEGCIhEqr2PDa1M7RkkcuYv3IChObo49ebgsFk56zI5tT3ohwPunOiJeFJbUvgscVaCpxIsgSpVG64nxl5wFpt12kdvEwotd85TazJcEUmW7c3Jw+7CWTdVuLcavvhDLFaIKiZxmlty4L8nh6zWCvl+JSC29sT5qM5+oq4BRhndu4nUeDH62zmcxC1gh9qEh9ud2h4ULPxwwH2Q0xHVzVqLQ7GVptZzCZbwvD2h3siIbpVGwWWCRm8TCtNuj1cu4Yw/5oSZtTOdewNQXO1+TPPuVqGseI38kYptx/CkA4fsy0uw+iWLr1fliDIIInnatt+/SdR4sRHbgmJ70KmWKwFwantQ8HDwTJqscEyYvMpSYoccTyZYAkxHIrKWE19sByS7dXCi6+NJ7Y7Rem+rqriJEf2b3baI4pznznXug8zsO4V283GDvpE/YrH9OLeYaO6kA08GidhhC9INEcrPhh0Zou0ZRjv2E4nbtf3D56Kc+2vMzw/Zo2KlvHXRLF4tW65ReUa2r5zaHhQ+XFrh6Qru/Vwpnh1fn7K9dpjR+Jvp59kEq70+Vsb0TKfTRTnNwDbRd30sqS06tP/tVZGHOLGPmZAjpasTD0CPNvzNvYw2ueyleilgbRQy+g9dbEXOKiKaXcKHDuOL98pm4w1H26IhzkDtGRTv7RHt2M+G3uAcKcQZ9OTp0CAwzh8mhT0S3dr1xGYifsUZ5eFiRRGf+459dzEldFp0fee4tQqd3B4UP6zESxwebp58Emc83o5NUhkTwM/nsTK6XlGzoSc9mpM45H97vOJlYnSKDH5GZVSW8i0fmMWPM9rfin5b9iqvvLqbRGWuY62QD5nvEzj0QyHEaGhFrFjhNLOYaJIikjKiUuVAghbkJlaZspxRz/4DSZJImPp0kUAdTAWJU85Z0sqJPcJI/0WsLb3lEiJdvOM3etRwPURxHrUipzSrOhgoHeDk9uDxU/kbJ03jXv2M9HRR0bGmnKcTLOFQKqHeRA5snVn19zsid6xtQvFvwzcL7V65S18a0d8g5lzJCOE7Y3RRZZP261uI2Hwi1lVVcWqW2CeJ+IVE5NiWgdVzwUvyc32gHEjM3vdIrKKJBG50s6qQq0h6+g/5cb99P5HODxggDobvzExMG4lSwbOxl3F6UmHKLyraOhrFqtTNRCICOdGmEupmIjq+YAsKEsA+GEumn5lIhIPbgz+8tCI7nYhdWZCLDg3mnP9DvLnbkbPGVrmc6/PQKr1S5bYn1HWM6FypQp0XNuY2oTDrh1WR+YPEXrPTxAUzadnRZfrtduocQxdnjJZEm7QnD/03sbo3OvEaJH4pI3aRl1a8xLVz8Z8ZxXzoRuF4bd8gI3HAWSQDIilAAwEXEmglYk+GiD25s63jWfprHms0kRrLl1QivPGv8k5z1E8Dq1dOvT3IiD+5rC19USqhirpRdY5yyke5Abb5iHV6jD8SrPpYmaJn3vFbfayxtglHJsyqeRUXE6f/tnECXX9phf5BIhKrRU62cZOssYwanXi1HVM5KzTAF5NO53I2lJDbXk9NJFBHTOYULxPJ1IHsSMYf4UieJc72tPURiadMDt2mcjJo0C2XgFgFFLXUxAqgKGRrplzB3uzw+a8MUbqfkTgTlmfrZZyv44ryu6Jiti7yVkeXmRUpIzoPbAvue97x5Er8neY4eyX8ceTtQU6vLGvvWiBWAVMJVazRyvhIMRIeaX0UpsyvbOp6XZpAlwjyXCDG49ZRV3Ea5/pGl3CVYsZ424Qjwm+LVyxnjG6ToiyXEEZrl1bQcp3rYpne8cZ1/br4hp4fFmLISPIl6n9OPaZyJhvgZzOReOlDW6FSzjGIL8GTpomzS9yRTz2ReIkv1L/sPVCl26vV8QuJs9fHxksPJOWiRIeshPxQJiMJem9GzBVGre/f4drKOD1LCj0dKlae3fFWhzgXWtBqlNF4DJ+5epuIKo2Osa4f+0Usmb4il/xV8yIPEmdLc/WT+O9bl7V11YjkqnPhnOP0oiIvJik/jSW1ayQycY0o3yRYgmiqLvwZ4uxu19At3JBxtwlHRK+qqhBV3z9duKqcEvjyti4llVDt0pfTIMbov6JN2j/l7JhHh9ErX5uJ2PQjy6tpsPhspvOz+IGzaPPGEyvq88yfyqnIhX9d4otUfIlu3MVIHNBGcx+B6jKRlOtUGnJ8KUIcNH9JZ/T5eJOWtJNUqjZ8ynBB6cl26h1P1+BgtrJ647auXLasqqrYR0RlufpJ+vfeKYMsek1np9BJqdrIFcT4Gkmy7RLjq7IMh0Jz4VdAYXFNJSL3E/FPFibFPaMn2iYUVopEYFVVRSMjOstyq3XecEm8qJnpmR1EQzf6nG+c3s5MLjuxprHV9uehVxAp4rC9SMCuPCP8sSyxB8QNO680kWyJN+de3KVQesArVvvPzmJGdNJ0TkdOdmaV0yBRsfX0Dmd0udXJVvsZ6j8zhcQPOVd8P3Fi34wn0zfn4rQ6XrFYZ7Q2Vz9J/95fzIuO/EJ7u7jwNNQ6EuqtnOhGSfLtEcNpeaxZc/psr2W+umICy/ROJBwdifDrREzKFo9M2/KSNeptwvHGiy/66VUV4g9NzUuH8UErl7d13eTClUJdIX5+ZbL7aeOuFN7zwBZG/wNE/GKxzVi4ROckiGRLFHV9YSc77Kadc1b5W/OJ0zgdP9XVSdV4ARCVKdYMlpZ9XuYPm+G/p98R8Q+4KPJaNKlVGLnleHtVxe3iWIcdtutEp3+preugIzGphCpuNzbYoV+Sjq3RpDa0vSlJnuvE+C7BEoTbFsytVEpCYu/eHassBYT90LcJxxN1ZzxemWGDFvvM1y9vSy86kMQO3VZJFOCa7KHCrOczZaV/L/NDfywjWxqqZxb39z1NnE53y69smTAHOdGGXoXabV8TlOmFO2WJA+mLZvOhCw4++PDVidHGTGnZuTWNrb2FEG+rUy9UDlzacdULnJyxD8Wb0k8Z8W1VVYUtZSQYo48u29p12AWnjoTa5aWLXmbYGuHvxj4++BsfG2t7IvIhRvy3boRu0iaeKSubbeQD7AdVFQsVohdNyjfTne9WJk1e0dra35WIzM8St7VUhEFDxa/rZfEm7U6D/Q13Gz50+2si+ls/JlaHghA/K7e8y+hPe3z7MWE49jk69nNOzaIPYyypcz7AGL0RCmU1YkVv9JbOTF85refyECn3Mpdse8lyfFiOyBZfzJSWnWX2x83Qj5W+PsHuaMk2SRBn7GC7ULS6svJYvYhvkaB0QhEKo3+8fmvXrw7t1LmoYp6e1Vut1i9R/pOxpCbK6Pi6+fqTM5WIfJOIf93rEeTEr4knu39qxI/b51X8A+d02B+gkbFG+iiczru+vWud6Otyvu/qxD9aJWnbMFWrfpsYiaK2nt4KNBLjsRKtnv30ynO9/Msj/zY4GDrozJ9C7BhO/LCyF4xRrRMryZzTc4f6oRDvzRJ7dfT/rjDWrIQGh9bqdAr1F4WmDCVKou0oKeEVZZuHti+6NhKfP7yVIUoRiP/NSF2nVJ36r8RFVwpCzXudMbo72qR9Idc8G/qx0t/3KHG6wKU/VvqVwdCcyo0HDpDnaquqKq4TeVaufgX9O+NfWr41Peat8bba8GKFMbvOfxXkhhic1enIeRs0UZXf183XCdbQVlat+sRfl7E/4u0o8qdiye4PGfVh1bzIF4mzHxjtb7Lf0DksMWZ4q1C8yWXr0z0m7d3DGF0+VnFSI3I6Tp97LA+FxKrgVCP9fd4n+9d9rRWxJu3bVvgpzhJOJHeFyIE80joS4S9xYrcGJLE6NCrvcoX9bXx9+r1kdaTD8IrVI8OrwK79scKJXRBPpv/H6HSzvno7+/7yts6vjGdPR2345r8WCFxh1F4n+3Hi348nu8f1xUnbZOv2dYI1nAQoHQnVjgPgsmMzWp7YJpxsZvl9VTxyJzH2eelGcWpc3t51zojctkXhI5Use0u6HvkCBzmjHw+Wln3ZKMeOWvVnnNHVLv2FLZ+QcYkZnfiHZa0OGlfr/p5tifC5CrHfEFHQn8/mRPxXsWT3JSJq7fWRWsa5WLGKu/3viRH9LJrUTJW+WVVVYV2BT87vWtae/peJDoOnEuH7PPJETm80qc1hHvqxVMinju8TrAN/3HOiTC9KFQLK8bGMfSzWlBa//Ay1oYehqyJPEDHZq3dD9bBGG9FRq17NGd1ryDDnO4kPwj2M+Lejye4xV/m0RFjNENtANPRlgDY2ATHF/jJ5cKB29sadu4IO6cCcUZ4j4scEncUh/otqa+J7xitbpOJm2xFmEgBryzPwX4sncHLdtHPHO425Zz4jujqa1P49d09/9AhEgjWUZCXCH2XEfunVsHGiB+NJ7eNm7B8q3zAv8jJxdrKZcbn6ZnW97supgwsPphKRXxDxT+Qa67J/14mT+AJ4gjP+nXiy+9W2RRVnKVn9/9x2m8ll3EabI26SfSPWpH3HxTZaalp7IvJ9Rnx5EM/nWQrWAeF6iB9V9UK3uI1tuK2aV7GKOC0zPMBwR/7r3W3pJUa2xr3wRA4n/odYsvvsXMmiYTwe6BiYBEvEIpVQv0VE/+qBuIxlYl8sqZmuavwIUShVVdEhs0YWI3bDsrbO7402khMpHYmwqLnp5fpj2eEvyUD9XUj5e2DUVsx5rZrs1qTI84AQcXMrm9VfZUTTPWAuTMxBgDN+ebyp+z/NglpVVfHSX3+kLTA7Lkf/5t1tXfWGkqsDVe83SdYvXVxIZydWbEi78ea5dF9HBAbqi8Trh94Zo4vyOaz9o/LyqQNlxSkiPkPKTGL8oeVb05cdKiuVmB0jKv6LE7fGpPgFIYUSyHJO18abNa9sF+ftb6pO/Rpx+iZWrfJG6KqBnNFdcQO3Hw81euURs2aUDJbulHqujPFXY1vTp11KJH7w5WxeeCInn3NtOR33QIdAJVgiHvwSCnW0qVJXdGyLM2f3xJrTn81H321HVsZZhr8pKflpWd7WdcRYdnQmyj+gk/KHfGzEGH8Q4ERPx5PaYn94c7AXw7XQxLt8Urfd/cjKMz4x+k20SRPnnEzfUl0dr7xQZ/wJab6aTK6EXg88kWOq5IU0li4QFLgESzAfXmlpdwF/sybsiCW1OWYHjfRfFa84nRiJw9sFNyWUjVzfMvZ2UHud+inG6WcFK4EALxNoLyZ+hp+2DNsT4ZMZMVGyI+g3BL08Lw+xnb0ZrUrPZ48aWy061HGp56/ySK4OfJ+p4szoeze73RYcxulT0Wbt526zyw57AplgDU3KWvXDxEhU5fZU4wpLjFVfxqgTP4hHzhDFFY32H6/f6IKjY/UZLrAozryhBZfAIFfYmYXMV7egG74pK4r9urZ2k1tYecgOrWSPflR4c8+7+dos8fyVNqlv8KjP9Zi3pT2hvsOIavL1weJxzdGkVhekg+2jeQY2wRpKsg5UWfZaEnBrLKl9tZA/itVV0Ut00g2XfBhbF795eVtanEEZs4nzbqlE+E5G7HOF2Iqxniegc51/Mr7B/OFht3jengh/jxH7ktRzNm5xLrh29DM9c0x0w468dzJWVFeXTtcHRKX3Qr9HtUxZ5ugb3ti2x2w4diycNWNfUUlB70Ca1Wmmv86VM6qau6x8vs2MObb3LXRi2G6wTIUHKpGHHyFi/yhTrpWyONHmeFI7oVAdBSdZ4xx0H20XkqxCo+Sb8ZyR/oVosudHXvMoVac+QpyGimWi+YZAvzK4/9jKjTvbCvFoVbzyXGJ86NmwAlreyZXQ2V4fOZvpvLEA/ZYNZZzujTZr/2yZAg8IDnSCJeIzfOhdXLP1zqFVnj021rxNHFgvqK2aF/kycXZQuQUTAl9f3tY1P1f/ofINdeoTxOnDufri3/1NwGtPZKQSahMRJfwdlcB5JyW5EtRWVUW+8dfnvW8pgGBByZXQm6oNX0OM/bgAG6wauquoj6KRV7W9VinwgtzAJ1giSF1/EynP7ufi10ypJ4LG2Veizenvy7D19qrKr3Di381D1mEV3ceTMVwj604iltcNyDxswxCXEuCMfy/e1H2DS817z6xUQhU3BcVD1Wj+ISAtuRpKsOIV/02MLs4LD6e2zOTMiflsC47Wl6qN3E2MfyYvGywcFOSD7aOxIsEaptG2KHKGkuUFH/62cM6+L5rTC7Fm7UxZuvJNspjCa5a1pluN2DG8HXsXkiwjtPzdx+1JFlaufDn/pCZXQwlWVcU7lN/h8j/tbus6bQXRYKGk3XmDkP0xmkyfFdSD7UiwxpnV7YnwpxmxnxQ66W0YzycP7p8l8w24fJKsXDcJD+UgkqzO2siXOctrxcwGrFBhEwHOdP756Ibuu23SZ1gNzlwZRuWljlofZY45OrljtyyjV9eEVT0bSuchT1pyJXSnEmonEVXkYYdlQzjpx8STPaLgdOAbVrAOmQLtifBdnrj5ZvLxZyMz3WySxYmu/WJbl+mEtCOhXsSJHjdiE/r4lgAnnv1IrHnbb93iYSoRuZ+If9It9sAOCQQYbUhntDNP3zj05qi0tioWOZsUZvJwOfvtlPKKi6/ZuFGKLcOP0ueT5EnjcLggdlssmRY3btEkXC/1HcQD54XUJ4noAjc7xxj9V7RJ+yfZNt5WVXkDI77SiFxO7JYvtnWuMNL30D7pWrVmkNFmr5x7y8dHjMlJYJArdFp8vfannD0t7pBKqDcR0b9ZrAbi7STA2T3Reekv5FtEdCJTb6uquIYRmThczn4ba+u8yOjzN0YwufAGoRat0qJW8DbCw419sII1RlReXEjFkWL1LeJU5cagDdtUUFX3ifxaVVVxHRGtzuU7I7ZmWVvnVbn6jffvby+cNWNSUYl4VuekfGVgnLcJcKLdg2Vlak1ja79TnqRq515ALCSKDuPz0KkgSNbLOH082qw9KFnse+Jur6q4nRNdb0Q+Y+ye6/9/e+ceZ1ddnf1n7X1mJoEECJnMPjNnn0kCBCj3OmTOBKJGKVUQFWtpi5SCb634qdoKvdmqGKqW9vUFaltsqVZFKvJ5rfrpWwEvyMWSZPYMscr9EgyZOTOcfXKBJJJhLmevtzsJkpRk5pw5+z7P/sePye+31rO+6zB5Zp+912/L6AeDfiYpaWcQiuAdhX43dcO76+nhbNfwB8phyI32LOr2zNanIWibLdyw9zU71X1ak1Xs+i2IzvADSm69Zmj0ymbq9MdkjA5Zn1bgo83E4d4UE1A8YA+4a+KoYPTcrm5vqraJx9/EQT+UnNWcoi8/4G4OJfr+oPW+QajA1dcMPf+5oM2VL6PcZ90IxdVh1ll/bPlWwan8ehh11q8heStpsKbpyXCfVRKFPwsnmZfgr+x+92Nhibup0LFKTXP94ePLfdcMjb652fz+w+/Pl9pf56m5LsmGttk6uX8aAoqP2QNu5F/RlUv5pwA9kb1JPwEFvr5rt3vlqY9jIuxqbix23gfBtL8U1MQ770+2uP45gaFc5ZL1QwBN//wNQpzZKh2d/1nZGkSsLMWgwZqhm0N9+SsN1S8ns+n6Y9up9oSp7aal7Z2qLT8B0HGIPLddM/R8YA8Fb16zbF7L2Ng3AVwYZk2MnUgCnqdGKcpjNcoly39B4/2JpEFR9RNQjEPxtsKge29Ud1Bu7O58FsBxhxFZbRGv78Nbwr2LlpQzCCXAuYz1Nz0dK2mwZujT3vlNfdYNybkVe5BgzZnI59e71TA/bmtPOaX1qJ+/eDegB/22JMAtVw89/4Egc/svGYz2WW9WD9/h3awgyaYglmDI7neXRqG0vNI6DwZ+wOeuoqAdao67JufPf3fUz/Dd2N3pfwW57BCV3bVrwaJ3rX388VDvoj1zAtrmL7bG4v78CvBQl+OWBPBC7XJKg9Ng1dG4/W8W+g/vJe7OigreX+x3v1BHGU0tWQsYC7sLFwq8Vx9iFLnsmi2jtzcV+DCb993N2vOPgDT1jFcY2hgzPAJRHKez/x8n/+SGQ92VDa84Rg6SwE7Tk/Pzg5WHorprdaD4G7o7HxDgDQf+mcJ4++6hkbvWRmA2yr0dZ0LE/2Yh1kuhZxad6sOxikhwchqsOpuz/83CH0NxWp1bIlom37SdSmSHVf/dCSe01SZfulxrOH1X+fmrw/xhsncw6couW83aSmoGmwAAGl1JREFUgwl/ozOiXs+JNJ5n4szu9e6jYVXLrwbDIhtRXMXHKjX3s0HPtmpE/Q3Frs+K6L55T6J3oJb7X9eUy/4dpUiucqnjckC+GkmywyUR3GT3u9fEqiHhyWmwGmjQ5rOOOaalre2phP3m+5LtuAsaKCN1S/03Dcvl/Gqp6ff4tWHq2tewYIH+qOBU39jwxjo2DPV2nm2I558zaNSxnEuSReCO3Bjel4QDhNcCufZC4egW1bGrRkf3RI1ppNRxrT+HMOq8B+SrVqZcO06TG2Ptdaemwaob1b6FW1Zax5kG/AccE3N5nvR2D1YGEyMoJCGPnXJK69FH7bgYnn6VRiskyAkJG9YcIx7inJAGNybj3pdNXHr8endrHF8HNiY1mtXlUseX43x8QgTvLPS7/kBuXtMQoMGaxcdjuC9/gajeNYutIW3Ra22n+qmQgicurG+0Fh61/V2Gh1tptBLXnqAEPWM7bqDjE4Z7rfeI4GtBCWSc8Ako5G22U7mbxupg1uWS5Y/PWRV+B16bwR+HYTvuZezJzPRpsGZmdMgV5ZLlT/G9aZbbg962znbc1UEHTXq8vXe0Fu44F9A7Eva1bdLRpUKfKi4rDriBvURRLllPA1iRiuIpci8BhV5VdKr/TByvMVg7ACyKnItifEwmO4I8ODvyGiJMSIM1S9j7xjfkPw/VQMcUzFKOd8TUxLHHbnxh5yz3p3qb/4yWu8XqrkE+r6JvTXUxFH8AAXnadionBYGEd6+CoBhHDP287VQ/GEfmpOasnGN1TNXgxqJP5Up7oHJrLLlTmJQGq4mm7Rvf0PEdQC5oIkwgW3kO1D6M1TVLFkyMydWA/GUgYBkkVgIq+u5if/VbzYrgxPZmCca2/17bcc+LLXsCEw/1dr7eEO9HMUi7t+C4v8KvBusnT4NVP6tDrvTHN3TmrP9S4NQmQzW1XaE3F53qh5oKkpHN5d6OqyDSwEn3GSk8g2Uo9D+LTvWgeUONljlcWnKhwLiz0X1cHz8BBR4vOm6sP1vjp3CwglhGNCjGW9Vb1jG4tZI0HknWQ4MVQHee7Vl0dFuu1X++I7bBhQI8VnDchM3oCgDuLEIM9+XXiuonZ7GVW5JHQD0TZzQzF6tcsr4P4PzklUZFdRB4znbc5XWsmzNLYhrRcLXtuH87ZyAHVCgNVkAgK73W8ingiRjfaovk2JyAcIUaptzX8RWoXBFqEgaPjIBC/k/RqfzJbBIOr1pygniGP7uOc69mAzABe2zH5b9TB/QhhhENGwqOu5rH4TT+HwM/uI0zO+yO0VJ7jwfzoQBDNhRKoZcXneq/NrQpg4tH+qxvqeJdGSxtrpa0zXbcJbMpvlyy/PElH5/NXu5JBgEarIP7UC5Z9wFYE1V3TJHlnf2V56LKl6U8NFgBd7O8yroIHl49ry/g+NOFU8G/FPvd90WYMpGpyr3W/RCEMgk8kQXPBVGK8+wB995GS+VohkaJJW89DdZrDNbhDpoOvnmKa+wBNynjiIKvL+SINFghAB7us35PFNHPblE8aw+4J4RQUqpC0mClql11iVXBPxT73Q/XtXj/ouFV1unigQfRNgItgWtpsF5jsDSiNm0odLuvl2+gFlG+zKWhwQqhpXtnZJU6Ph7PqIBc0XZGyiGUlZqQNFipaVUjQjfZjtvQkNByKf+XgH6ikSRcmzwCNFiv9mRzX35Zi6p/Byv0K6c4Lj/gRpIr9GJiSkCDFRJ4f0bWaK91iwoi/cqOz2EBI6X8dxX6lpBay7AxEVDDW1HcsHVTvenLfdYAFCvrXc91SSSgZdupFpOoLA5Nw335NaLqP4MV7iX6R3Z/9cZwk2Q/Og1WiD32J4yPDuXvjPIfe87DAvgWYYgf6lhD6+/YTvW2eiRsLx171BhaXuDbg/XQSvQajmk4oD3lvvyVUP1yyB3rL3S7q/nVYPOUabCaZzhthL3n5S3Y/v3IHroWPGr3u6eHXFaiw4+UrM8p8AeJFklxDRNo5CWOkVLH+Qrx51/xSjMBxQP2gBvZG3NJRzXS2/FJFVkbmk7FuJotxxc3lEdCyzGHAtNgRdDs0Z6uI2q52qAAp0SQzpuPyUWLnR27IsiVyBTDJeujAlyfSHEUNWsCCt1YdKpn1xOgXOr4RDzPQNajjmvqJiB6q91fvbLu9RlfWC5ZXwLw3rDKFMgHC07l82HFn2txabAi6viW049eZM6f9xQEs5rn04hMEZxf6HfvaWRPltYO9VqXGoLbs1QTa9lLYMp23JZ6WJRL+W8C+mv1rOWaBBNQfMwecP8qwQojlVbus+6BIpyzGRX/URhwL+ZA0eBaSoMVHMsZI206w+qYNw+Phm6yBJ+w+91PzygoowtG+jpfp+ptzGh5c7osI2cu7Vo3OjQThHKvtQmC42dax79POAGVi+yBCs+R3N+mcsl6BkDwo3j2fjU41lXcsGtHwj8RqZJHgxVxu4ZLS1aIGo+EfKTOnbbjXhRxaYlJp2uQGxmzJhMjiEICI+CZxhu71z//o5kClkuWP7uHx+PMBCrhf6/GlF3csJ3PA71qsLYDODbotin014tO9ZtBx53r8WiwYvgEjPYsPtkzcz8J0WRttx23PYbSEpOyXLL8AZNz+mH/xDQjUCEzv0k4ek7nUq/m8WiPQLnHEYwjGv4n9XLJCmHIqNxmO5XfiaPDWc9JgxVTh8srl5wFw/ivsNKLZ3YXBkeHw4qf9LjDfdYXRfG7SddJfY0RUMEfFPvdv59u11Bv5+sN8Wa8y9VYZq6OmoAovlYYcH876rxJzRfSLw4jk/Pnn7D8/udeTmrdadZFgxVj98q91psh+GE4EuQS26n8Wzixkx91uNTx2wKpa2ZS8quhwlcIqMh1xf7KtK+pRzaMkW0JmcDMdytDFpCo8CN9Xeeq1h4MUpRCzyw6VR4nFSTUA2LRYIUEtt6w5VXWefAQ/Bt/is/YA+7H69WRtXUjK7uKatRmfBg6a3VnvZ56DFZEwxizjjr2+nImrPx6txq7kIQICPoXB1H5s8JA5X8npLxMyqDBSkBbQzJZc/pBd7+t5VLHRkBel4AWU0JABGiwAgKZ+DD6Y9up9iReZoQCA/7F4QcFx30rRzKE20AarHD51h19pM/6FVX8oO4NMy/8me24c/o19dCnHs/cg+BWKMYh+CmA3uCCpi+SqK4tDFSvm055uTd/BUS/kr7qqPgVAry78trPwnCf9WFR/F0An5Jt0D0n2wO7/TcSeYVIgAYrRLiNhg7aZLXlakctWbdtd6M6srJ+uNRxhkB8U5KJSxTvKwy4/+KfDOCZMl9Uj1CZmK+SO0HEOxlqnAnoyVk2YbyDlYmP8oxFtHpeZ8fg1sqMC+fQguG+/FpR/WSzJasha4obKg80G4f7ZyZAgzUzo0hXBHmGmoi5utA/ui7SAhKWrFyy/Dc1z0qYrNnKeaEtV1taj2nevGbZPG/3zrYFuZZ5NdOcB5X5qjXbUz0OhnGGqJ4MRQGAb8hSc6ng/cV+9wvTCZ5jk/yfBGRADAzqVO1B0zRfrHnmbi83eYxRk0cAzE9Nc/cLFZXvFgYqF6RNd9h6gzBY9dwBDruOuRSfBiuB3Q7KZCn08qJT/dcElhiZpOGS9YcC/G1kCUNOpNCbi071Q0Gm8c3Ygsmft0wZuXm1CbPNMD1TanrkpFdrN0xzuSqOE0E7FGdAtA2KlUHmbySWp3hP94D79en2BP0wcCP6Al67bf/Xwg8D8lNTMSiqY2PqjS1o1Zfau7btkW/AH6j6mqtcsvyDrs8PWE8k4QS4uOC4/x5JshQlKfd1fAUqVzQh+a5Ct/uOw31mmojLrYchQIOV0I9GuWT1QXF/c8NI9VrbqX4qoSVGIss3Dy17xl5sjmMkUutNUvNMWdW9vjJY74Yw1ikg7hnWEcaxnngTxhF+DvVk3/+KMW9yyjNbDK8wJUaX/2cG9pkyz9N2w8DyvZoU/t/5d9HqvlTkTcX+yv3TGiz/tAQYT9cdNPqFP1XgOREZ8YBBqU1tNrS1YuS8cTF0jym1sS0vb3v57I2Y1WkEw73We0TwtejLCiTjk4Vu9zSagEOY5uYM1khuDCflH3ZfCqRLDFIXARqsujDFs2h4lXW61DA4W3OgwJeKjjvnh22WS9Y/Abgqni6GkvWntuNm5WvPfV5rDXLuDqvtFVpT83Lzcrkp85X/X5s020yp5awj3GG5H1PTUa2esmTBxEIj7GcPd0PwJFT8lw8egeq4B3nYAHZ7NX0y12JOGbXa+ERLbbxVzSn8HC9tn1o8eerjj0+E8onYH3To3PYuY8r0zeWRYeYJK7ZAPlRwKjeHFT/NcWd9B0sxbtSmzurauP3JNNefRu00WAnv2mjPom4v1+ofXDybo29+YDvurya8xNDlDa9aXBAvVw49UbQJrrYdNzNffQaNbrgv/zcCLPyfcT3Rhw78M8OTzWrotlf+zJvCL37D9+Dtmd9ieGqKyk7d46+xjnXHZzJ4QdfSSLzhkvU9AdL63/zozt2Ll4dtQhvhmaS1szZYmNtDp+PsIQ1WnPTrzL3PIJg/BOSkOrfsW6Z4wB5w1zS0J6OLyyXrDgC/maHy9ni52oruddtGM1QTS2mCQLm34wMQ+ccmQsS6lXevpsc/O4Mln7KdyrWxNnYOJ6fBSknzn+1ZdHRbrvXbAN7UgOTnbMfd97zLHL/KpYINTGXrbEbFf9gD7jvmeGtZPoBKr7V8Cnhito8TJAAi717N0ITGDZbcVnAqV4j/qzavWAjQYMWCfXZJnznhhLZ57btvbuAQYxqsA1CXSx03A/L7s6OfzF2ieE9hhrfqkqmcqoIkkPpxJCq/YQ9UvhEkk6zFatBg3Te2feEFKzZtGs8ahzTVQ4OVpm7t/dYPRrnU8T6B3FKHdBqsAw1Wb2ExZGozDvFsTh0sk7rk59DcMntghFOZk9qhkHWNlKzrFfhoyGnCDL+u4Lhv4LEt0yMulyz/Z/77Z26EPjUfU72LnR27Zl7LFWESoMEKk26IsYd62882xPwugMWHTyNP206lsee2QtSchNBZm4vlMxXBtwv97q8lgS81REug3Gu9GQJ/5tUv3riMVkEA2bR2kj2wLcljNQIosvkQ9R39pU+NT02Wjt/4ws7mMzJCswRosJolGOP+LauPXmROzLsVgrcfUobgO3a/e+i/i1F3nKn1EpjloQ5HIJk6SFaASwuO6z/Iz2uOENh6bvvC8SlzE4COFJd8ve24f5Fi/ZFJHynl36vQL02TcDsweZbt7MjaG9ORMQ46EQ1W0EQjjud/ZTjSm78Aov5064NeS1fgz4uO+9cRS0p8utGexSd7udwTiRfamMDd0NxyflXYGLQ0ry6XrO8AeFtaa1Doxl2728/hWIb6Ojha6uzx4B00ZuTVnfK0GntWFTfs2lFfNK6KggANVhSUI8jhv2XYarZdLqI3AGgFsN2YMk/u2jj6ixk/EchITYpyr/UXEHwmNYLrEMoz3OqAlJElI6WOP1bIZ1NczoQxNXUmh1/W30H/7vvIkPXCa54hVTwwOTF+8fKfvPhi/dG4MgoCNFhRUI4wx2hP1xG13GRhXk4r9RwKHKG0RKV6qActedPyjyI6J1HCmhQjKh8uDFT+ockw3J5gAuXejlUQeQBAS4JlTitNBb9X7He/mFb9cekeLuU/K9A/PiD/9WPHLrxuxd18WzCunkyXlwYriV2hpkgIPNfT3pnLmY9M/6JAJFKCTDLm1dDb/ZD7aJBBGSsZBPY/d/UUgM5kKJqNir3zma7kW4ONsxteZc8XnfwMVBbXgL9Z6lQebzwKd0RFgAYrKtLMk0gCI6WO8xXiv4WVmUuAxwqOe1pmCmIhvyBQLln+Z/X89CLRH6vRurq4oTyW3hqonATqI0CDVR8nrsowgXLJ+giAm7JVotxgO5UDv0rIVnlzsJrhUv46gab52JPtk5532vLBrZU52D6WPAcJ0GDNwaaz5IMJ7H0Tsy9/M1Q/kCE2HhTvtAdc/00zXiknUO61LoLAPyorl9JSJtTA2cUNrv+VPC8SmBMEaLDmRJtZ5EwE9j70nsvfAWiWBnbuhOaO5+iGmbqf7L8fLi1ZITA2pvkEAjH03MKG6vpkk6Y6EgiWAA1WsDwZLcUEKmdYR07O17sF8voUl3GQdIH+qOBU35iVeuZaHY+dgtajF+YfAfTEtNYugncW+t3/l1b91E0CsyVAgzVbctyXSQLZNFn464Lj/nkmG5bxosol604AF6a1TJqrtHaOuoMgQIMVBEXGyBSB6polCybGzLsBXZ2RwjyFvL3oVO7KSD1zooz6zp5LLgoBLi447r8nVyGVkUC4BGiwwuXL6CklkDWTpcAuc8o8vWvj6FBKWzKnZI+UrN9S4GsAjBQWPuF5srp7sDKYQu2UTAKBEaDBCgwlA2WNwOY1y+a17BnzD9P+jYzU9vDO3e7KUx/HREbqyWQZw6vyveLpfQCOSGGBO6C1VfbAtqdTqJ2SSSBQAjRYgeJksKwR0DXIje6xPq2CP8tCbSK4vdDvXpaFWrJYw+aVS/IthuGPMmhPXX2CQWPSvJDnn6aucxQcEgEarJDAMmy2CIz0Wpeq4PYsVCUqf1oYqKT5oOAstOE1Nex7Y9D6CYBfSmGBtxhT5jVdG0f3pFA7JZNAKARosELByqBZJLBlZf7UnKH3KJBPeX0T8HChPej+MOV1ZEp+uc+6B4rzUlbUhCreaw+4d/BswZR1jnJDJ0CDFTpiJsgSgS2ruxeZU+NfheKilNe10zO1p3t99dmU15EJ+cN91hdF8bspK+aJmoeLlg66P0uZbsolgUgI0GBFgplJskRg79E6pY7LAPkigNYU1/YzNcZWFjfs2pHiGlIvfaRkXa/AR1NViODjKi038tDmVHWNYiMmQIMVMXCmyw6B0XM6l3pT3u0QnJPiqjbYjptm/SlGDwyXrD8U4MYUjWN4Qg38Js8UTPXHjuIjIkCDFRFopskmgf1vGV6ign8GsCCVVYreavdXr0yl9hSLHi51vFsg/zcl5moCoh8Z23bUl1Zs2jSeYuyUTgKREaDBigw1E2WZwGhPV7uXq30awFVprFNFriv2V9amUXsaNZd7Lf8Zvn+DoC0F+m/Jmbg2v96tpkArJZJAYgjQYCWmFRSSBQKjfZ2/pFr7J4W8IWX1eCr4SLHf/fuU6U6d3HJvxyoV+e5/fzV4VMLF36Pwfr/obH0m4TopjwQSSYAGK5Ftoag0E/Afgh/t61jlKT4nkJ7U1KIYV+ilxYHqt1OjOWVCyyWrT4HvJdxc3aPQPyo61YdThpdySSBRBGiwEtUOiskSAd9oDZWWnGPC8Id69qWiNsU4BGtsx+1Phd4UiRxeZZ0ODw8m1VwJ8AUxzBu7Now+mSKslEoCiSVAg5XY1lBYlgiUVy45yzPlI4bKFUmvyz8YWoC30GQF16ktK63jcgbWJXBIbVVUPlVrmfpW97pto8FVzEgkQAI0WPwMkECEBPyz5nKmcYmo/ul/z9GyI0zdaKqdOcUv5wfczY1u5PqDCVR6reU1wfoEmasJQO8QA7d0TVQHZSMm2TMSIIHgCdBgBc+UEUlgRgLag5bR1iWnwTOuVOyd4H3kjJuiX/B8TnEuTdbswY+c3XWSmrX7AHTOPkogO/eaKvX0617bfGfpg0MvBBKVQUiABA5LgAaLHw4SiJnA5jXL5rXs2fPLKsZbBfoBAB0xSzowPU3WLJsx3GeVRPE9AEfPMkRz2wSPiie3eYY+YE6aj/Ag5uZwcjcJNEqABqtRYlxPAiES0EtgDo90LDM9OVsV7wLwFgDHhJhyptD3QeUGe6By50wL+fcHE/CNc25sz4mGyqkquBDAmwAUQuLkz6j6vkDurXl4VHK5Z4sbyjwCKSTYDEsC9RCgwaqHEteQQEwEfMP1/EinrbXaiZ7IyQL8KhS9YdzlEuAxBdap4gHD9J6QiZaneNcj2MY/27Po6BZpLRoCSwwsUegKQE6E4BhRLH8lmwLLALwowIuv/FlN5DFD9UVAyyp4zPTMrdoi1ZdfHqscv/GFncEqZTQSIIFmCdBgNUuQ+0kgBgJbz21f+PKU5EWlXQ3jGMPTYyC6whMcqTD8f5wPeRmePiOiEx7wmAnsnlJzRy6HreOtbe7y+597OYZSmJIESIAEMkmABiuTbWVRJEACJEACJEACcRKgwYqTPnOTAAmQAAmQAAlkkgANVibbyqJIgARIgARIgATiJECDFSd95iYBEiABEiABEsgkARqsTLaVRZEACZAACZAACcRJgAYrTvrMTQIkQAIkQAIkkEkCNFiZbCuLIgESIAESIAESiJMADVac9JmbBEiABEiABEggkwRosDLZVhZFAiRAAiRAAiQQJwEarDjpMzcJkAAJkAAJkEAmCdBgZbKtLIoESIAESIAESCBOAjRYcdJnbhIgARIgARIggUwSoMHKZFtZFAmQAAmQAAmQQJwEaLDipM/cJEACJEACJEACmSRAg5XJtrIoEiABEiABEiCBOAnQYMVJn7lJgARIgARIgAQySYAGK5NtZVEkQAIkQAIkQAJxEqDBipM+c5MACZAACZAACWSSAA1WJtvKokiABEiABEiABOIkQIMVJ33mJgESIAESIAESyCQBGqxMtpVFkQAJkAAJkAAJxEmABitO+sxNAiRAAiRAAiSQSQI0WJlsK4siARIgARIgARKIkwANVpz0mZsESIAESIAESCCTBGiwMtlWFkUCJEACJEACJBAnARqsOOkzNwmQAAmQAAmQQCYJ0GBlsq0sigRIgARIgARIIE4CNFhx0mduEiABEiABEiCBTBKgwcpkW1kUCZAACZAACZBAnARosOKkz9wkQAIkQAIkQAKZJECDlcm2sigSIAESIAESIIE4CdBgxUmfuUmABEiABEiABDJJgAYrk21lUSRAAiRAAiRAAnESoMGKkz5zkwAJkAAJkAAJZJIADVYm28qiSIAESIAESIAE4iRAgxUnfeYmARIgARIgARLIJAEarEy2lUWRAAmQAAmQAAnESeD/A+7W98+3VvosAAAAAElFTkSuQmCC;" vertex="1" parent="1">
          <mxGeometry x="651.59" y="179" width="66.82" height="50" as="geometry" />
        </mxCell>
        <mxCell id="bo15evatfYEAUdu1C9lu-28" value="Upload a CSV File" style="text;align=center;verticalAlign=middle;resizable=0;points=[];autosize=1;strokeColor=none;fillColor=none;fontFamily=Architects Daughter;fontSource=https%3A%2F%2Ffonts.googleapis.com%2Fcss%3Ffamily%3DArchitects%2BDaughter;fontSize=12;fontStyle=0" vertex="1" parent="1">
          <mxGeometry x="170" y="155" width="120" height="30" as="geometry" />
        </mxCell>
        <mxCell id="bo15evatfYEAUdu1C9lu-30" value="Publish Storage Event" style="text;align=center;verticalAlign=middle;resizable=0;points=[];autosize=1;strokeColor=none;fillColor=none;fontFamily=Architects Daughter;fontSource=https%3A%2F%2Ffonts.googleapis.com%2Fcss%3Ffamily%3DArchitects%2BDaughter;fontSize=12;fontStyle=0" vertex="1" parent="1">
          <mxGeometry x="220" y="220" width="140" height="30" as="geometry" />
        </mxCell>
        <mxCell id="bo15evatfYEAUdu1C9lu-34" value="Notify Subscribed Event" style="text;align=center;verticalAlign=middle;resizable=0;points=[];autosize=1;strokeColor=none;fillColor=none;fontFamily=Architects Daughter;fontSource=https%3A%2F%2Ffonts.googleapis.com%2Fcss%3Ffamily%3DArchitects%2BDaughter;fontSize=12;fontStyle=0" vertex="1" parent="1">
          <mxGeometry x="470" y="220" width="160" height="30" as="geometry" />
        </mxCell>
        <mxCell id="bo15evatfYEAUdu1C9lu-35" value="Write the data as Delta " style="text;align=center;verticalAlign=middle;resizable=0;points=[];autosize=1;strokeColor=none;fillColor=none;fontFamily=Architects Daughter;fontSource=https%3A%2F%2Ffonts.googleapis.com%2Fcss%3Ffamily%3DArchitects%2BDaughter;fontSize=12;fontStyle=0" vertex="1" parent="1">
          <mxGeometry x="345" y="370" width="160" height="30" as="geometry" />
        </mxCell>
        <mxCell id="bo15evatfYEAUdu1C9lu-38" value="" style="shape=image;verticalLabelPosition=bottom;labelBackgroundColor=default;verticalAlign=top;aspect=fixed;imageAspect=0;image=data:image/png,iVBORw0KGgoAAAANSUhEUgAAAUwAAAC0CAYAAAD/2BWfAAAACXBIWXMAABYlAAAWJQFJUiTwAAAAAXNSR0IArs4c6QAAAARnQU1BAACxjwv8YQUAAByjSURBVHgB7d0JfFTVvQfw/zl3Jhsh7AIFASGTjRBEugn1NQRQcQkFBW21La2t9Wm1Li3aatv01dZabWu1Llh9fbVqK1qFILghpO5aqWACySRhUZGACMoSkszce877n4m0bDNzZ0sm8PvyGWYyc+6dO3fu/O/Z7jlEAAAAAAAAAAAAAAAAAAAAAAAAAAAAAAAAAAAAAAAAAAAAAAAAAAAAAAAAAAAAAAAAAAAAAAAAAAAAAAAAAAAAAAAAAAAAAAAAAAAAAAAAAAAAAAAAAAAAAAAAAAAAAAAAAAAAAAAAAAAAAAAAAAAAAAAAAAAAAAAAAAAAAAAAAAAAAAAAAAAAAAAAAAAAAAAAAAAAAABHA0E9wKlPrit1HPmwJhoqhXXZ8krfQgIA6GJpHzDnLNTWzgz/St7SUzqfEdsCHXLci3N92wkAoAtJSnM7vWsv+k+wNPTgjCxVRQAAXSytc5gVD28YLHoFXuaHYw5+RSgt5GdWVPr+RQAAXSStc5gcLK+mw4KloaVQzk2Vixp6EwBAF0nbgFmxuKGM774ZNoGgU/cJ+V8EANBF0jNgai5wE/2aHw2MmIz07099pvk4AgDoAmkZMKdVN83SRKdFT6nH2G32twkAoAukXaPPGUvrhnTYnmf4YZnLRXY6mk6r+VLRmwQAkEJpl8Nsd7zzyH2wNPpbkr5fVVWV9l2kAKBnS6sc5qmP+YscL73KRe2+MS2oddCS4vRnK4tWEABAiqRVrkx51U9iDpaGEF5HiXvPqn4/hwAAUiRtAua0RfXcyCNmUryEHtNGe+YRAECKpEWRfOKbb3r7vJf7mpB0EiVmi2Nbn6s5x7eZAACSLC1ymP1a8i7k0H0iJe5TluX8nHrIKEwA0LN0e2ApX+kfaO3Wm/hhL0oGTW1aqJkrZpY8RwAASdTtOUwOljdQsoKlIShbaHljycK6DAIASKJuDZjTFzV8mu8uoWQT9JkhGfJrBACQRN1WJK+q0vKFCf7lvAFTXC2g6SVuCd/OmzzLVXJN2z27+57w7NeGtFIXG1dY+GNNajK52L+ChOJbq9ZqC0lrbZDolfb29qZNmza1k0tjC8dM4Vz1NbwyLyUBb09bsCNwZQNvxP7nxhX6zN18TVRBh3wuTu9oIW+sa2h4JdJ6TywqMnfljlbXatJJO1nzitZ5c/Pmr1q1Knik10s733eS0M6VguRB78vfk1JaPL62sfFvlGLjCwvN3RRFev4RPj/XJNETtU1NCyhFxowJDfx1XLZlzZdCjDo8hd66z1HXNDc3d1AMyopDn+tK3pMzDn2Nj42gInHTWr//5UNfy8/PJyFEZpYQl/Jv++RDv5sDbNvd0XGN+U0UFBSYv4dnCH0X32dSYnSdv+n0WBbwUDd5cULjV/lXV+4mrSbRHHScudbs4u3W4saXeed+NtoyQtAgJ++jm/nhd6nLqav4QOnnNjX/eEIbTFqZiKe9mRnvc4B6yA7Yd9dv3PhOtOWFFmfygXcmJVFGRsaTfHff/r+bNr3r9Y0acRl/rhFHXECptfx/xIDpaMcE2pm8xaeLJJ6ree9N2rt37y38cMuhr5WUlJjXBwjHrub3HRDa1wcRZtfPGF+cX7umvnktpZAiZT50ZdjPL2nI8OHDH9i8eXMbpUAvjzRv+jPeA5ccvh86ZUlp3vsHFANzxuG77/BnKjpiAu008P+HBcxsK7QPrjXbZL6HcNvETy/NyclR5qFHhJaZxP+fTYnTMabvniL55EUNvfkDu27N5q/5rhfPKWmpEcK2pP4hf07bzXK89m9MWdhQSF1OJBINzLLD+e5aT4b3xTKf7/sUZT9FODPHTR8lPQ0sFSSpgnP4wwwIl4Zfy3WU/B4dxcpM7tJWx/H3ekakdBy2LiwaNmwAxUB03sIegzI0+NjBxplcv7DK+b8bKAItRKPj8Vy6bt26QOe6tLl1W1Vit7xxNp9V+GxyvLvU4p9ZtOffxZTQ5Y9C/tnlsjnCq++Ys3ChRT3T8VqKX5YVFPyViy+JFj+OOeXl5dRnwHFezrhHLWVwEXX6uBEjXJcKehptWeY2h8KVEPYTYrAnN+cCSqGTOHh7gkEfV0M9zH9GqkbawbnWizlYvktpossD5pTqtWOV0G7P5h18NrnxycpP7zvwSac9eAOfaHa5WYGQYvrHmWWzqefycoFnLhdfzEyZ6F8ag50tLbT7ww+ncXXF2GhpteYTeHb2xXQU4mI+7Wpry+Gj5xoXyTk7KL7CJ5uUVNeNGjWKPnKcbMdjLeCDeWjYhFrbStN1tQ0N/6A00qUB01zRI5Tn53zWyHWTXmha+OzMwiWHPl8zt3QrB0IzwLCrOghH0/UTF7yZlAaRbsLHlqgsKyr4BYFrWoT+Xe0yOdeoKTPC/1F3UhqYm0v9e/X6HD8c5SY9/6g+u+ODLdMpBbZt3Wr1ysrgRtFojb3irpLx4/9EaaZLA2afLb3O5a/D7fXiuzlvdQvnDo4YFPc17/gdf7Nvkwtcozi+79DeN1APx7nqH4zLz/8idQXH+YCSrNbfZFqCt1CScT3Xh9kdHQeVQkpLx5D2OMfzMVLuej0kfCWFhS4Gru5ZHKUE374fwyKCbH0hJVlpsY/GnHD8DP5FR2xU4uP89drGxqseffRRh9JMl7WShxp6NF1tWihcLSD0zcvPLK4N9/KrV09qm1Ld8EsuPvyZ93AWRaGV/kH50o1315x5wlbqXo0OieuF44S6bnDVksnRDOJ67Hy+P4//OiHCsh7tCTVOuC6m8MrbuGhzgZDSdT2Qbdvt9evXH9Ri3N7RES037ypntjsYvCPH633OYgc+zz9oy5J0I0etCDkb/U1uKDjsJKkCge2rN236+MDnZNBjtueHXFceyzEuuKbvcr5/mo4SYwsKuHWexnPD6YyYFhTi3KJRo64/sGtZIj7preCTjv17ihh3dK2VLc4h06kgPgEuwV7LJ9EXKQW6LGBmk7iMD95Pu0os6F2nfcDt0ZKtPLvw0alL/HP54TlRVyko27LbfpF/+7JLm684I6Z+Zkmldc26xsbHjvQSH1Q/9TjBWzincymF+W74pPOl0lJfcV1dUz25oEhvrmtseoLSxCf9S1cf6bWyQt8/+LOHDZgf7t77SEtLyz6KwjT22MGg5+PtH8wSsXdYOL04P/+k+ubmo2IKZ9l5IvsqxV7VkOHN9JqLSq6jJNi4YYMnf+TIP/LD0RGS7eGay0vWrFn/PsVvn1aqurapaQOlQJcUycuXrRnOZbFL3aXm0oOtr6qZe9ze6EmFdmxVxYH4Y3JFfmPEyPy0nWnSdJ142990JRdJ7o2QTPA5dC65xAG2x4xEr8JUv8Rq+5bN9NH2bRdzsBxMsZMej/wKHQVMrk55PLl8xMQ17xWfvC4ZOnRowmPMakkyf9QIbnPQYauTuNHN4eP+srr161+hBHFpJWXHfJfkMGUg4xcc3Nx1IxK0RPfbWk0u1cwuqZu6qGEBL3eti+R8llU/nbZw/RvL545x1creDbQU4lY+CZg6pLwjJeBM01QKdfZ1QYiR4woKfsOR6EM3yflIe+ntxsaUFGe6grl6JKBFVpYU8bd4a5o3IT//5ream7dTDyaDoQufvkdS9KY48I8lr3/f3udyrv4BSgAXkS/kfeqJkubOAY2Nf6XE9eUz3m9LCwpedZO4rrHxJopBygMmB7Mp/OP/sqvEmnY5KvizmilT3HVM3y9X30L7xPm8/MhoSfkgmOxkBM2P6RZKU2/7/RvLCgtWhWtJ5DNxLJ3xPfyhr3ZbHuP3NEX9Euqhsjv78FfwThob9vqBUJc03cGvh5uiub8t5Xl8/wfqwbbt2CGHDBo4L0qyTRS+9VxIR88fPXr04g0bNiSSwYjSEV4/ky33/U8NV59TEgjSZ/N/bq4EMiWamAJmSotr5SvrcsmiG7lo5K5LjxR31swqXU0xen5a8Q5F8kfkcodLob87Y1nTcEprelW4V/iAGEAp6v7CxbAePc3H+9u2mWP62xwMw16swCX/h6mzW1r4JELPo268dDhR44qLacjgwaahJ1Kd4fvKUWdx1AjfECpESa7H467tIT7vdmhx0RsN7++gHiClAVPu8p7PrQ6T3KUW77WTJ+6BBwa2r36EI8jr7lKLER22cts/r7uE79bDwWD48OFRewYca0p8Php63HHjqbPKIgzdqoLO/yrp4YY3/VHYVCRO4qBTTj2VcgTfrqJIJ1ZNC6VlrePi8OIIazIX219CqTlBt3Ot9YWNjY2JNPJ0qZQFzIqF/mFC0g/dpNWhPsZ0w8uVY+K+BOrRuXMdpfV8fuiqBZxzaZd+cUn9yZSuBCWlAeRYIiXX/kppGjgi1dktr9uwYZV0HD7W5MII6QQ5do/su+vjE0eHDuUsTwmfSu8MCLHA0UGtdPAhinARCFepzRxbMDrpuUyTs7U9HpeZnPSQmoCptRAe/SO+H+0mOceG1a2BHY9SgtTqrW/wt3C/q8SaMj2OuDldrzPnespBEV4Obt682fXwb8eCUD8/y+ovSYcdXIJbYpVytDk+OEhoc7uHnwzfOVqIk8cXFRVQD5PFecJMCl1+HHYQbUXiBT/L3tNGWXvb/8U/wuURVumVwnLXDhEDzrKOsmz7jjlz5vSYsR5SEjBPXbp+LFni6+5SizbHca54de6khIe0qqmaYlvk+RW5bBE2Y/DtsEorKS2JcRFeNMX1lORA+SDukYFY2AGuwQ58nXdK2IY/rpjcZFtWjXncoRS3pusGfjLSkG4ZHFSTP8B1Co0vKOAftRjGdbRzIiTTXF7/u3mwqqWFOnr3buU8zl8irpjEebzuYZRsgr69rnbNj6mH1BcnfSPL/7QxSwXb/8BfmMtpJ/TSmtmlL1GSPPul/Pcqnqj/gZDCxXWowiMs8bvPPl7/whuzi9Om0nnMmDGm9TZsf1EOCu+QW6Z/G4mHNCmX3YrkcuphDuhK9K2ICbUe4BX652VFBfsHlTYVH0Mjn3n0vOLi0XfX129ooh5Ad/YMOJc/65AIyTiVmMn7ofiTpUyJJtqMrUOVRab/7+8ouYTk6rjSIt/euoam31ByMgLPK63WuEgX83slPWDKgfZ0rYTr652VR95KSSZzM57QbfYVfBRMiJpY0Mg8S5rhv9z1a+wCOV7rWv4qw55w+Ffuvp+kEFvq/I0uc/s9U2bnVZbcuKiLIyYUog+Hk+/p2H4mfb1KTuP7tA+YZWVl5i5Xt7d/zcVY/+fGuB+E0OJybmy8J+YBjrXexiftPhylwzVUWrzuX5YWFm6t8/sfpMTskUH70toNGxopBZJaJJ+86KXeQqs/xrKMtPXL0xY31FcsWvdARXVDxZwkTF62fPqYXWSry8jlGUQRXVmxuLaMup9nXKFvPplr7iOQ3MpLLnHeoUuK2N054PA7771nSfejEsXKXCx1xYmjRvWlNKfa283trCRNWX0YrvYd0Tc7+wsUIw7MfxNKmTrQYIRkXs4I3FdW5Eu0rtRRlpWU/pxHktQcZpYe+E3eOzFejqYt/rEVcfNmEf/qvvpRpve9iur6hzwk7n22smgjxen52cWvTl1c/wgf7+dHS8tfVF8S3ht522dSki7PC/9m4nOlRUVmiP1PWvPtDEGeT3FzhI8rlsy4nVFaI8XiNTGcPbnoNXKcz/cdrotzP0qQZe1d6/fXUAxFFs7jHfK5omwX7+ede/bUJzodQ1lxKFP5We3YFYkNdB9RYdDrNX0ak3ElSiSjB+TknN6vqMh1b5GOXbveaWxp+dBcP+/Ytvfj7R+Yyf9StSP4xESmJ4qptnF9bJjL6za1tCweNWyYmXfq9xR++zK5LvW+8T7fnjVNTU9SfHKlpO+Mzc93Vc23trl5CcUgaQFzWnXdCD6TxNRr/kjMSOycPb/OEeJKDnj3t6r2W1+bNWETxUF3yO+LDPUl/iG56bM4vWLR2rNWEMW0A+MwnnPhB8xvIs1EXJ0jXkZZkM/wnNmRv6bYZHB98j0ypt+QNhO5za31+133XOBgP/ngzxUlPf/c+vXKvm0z0VWUCCc0T9DZ/B1nU+qY7krnT5w48bFwE60lSW8l6HEzt5NbGXm5jSX2oInbt2wxYy+M5YCW0rESuI50UnFx8Yj6+nr39ehsT2ur9m/aeFfh6BP68+FVFSFpjpLioXFFYypqG9avoth5FIn50hLzXaQ1QT+mUnbSiuRae82EY8k7aENDtonLcmT22xWL66/Jv70p5ikaVswtfJ9Piu4ugdTEbQbWneUrN6Zth3DOQP0k2syMSaN16oug8Q2O8W9l3NhDSg3n9cQ1uEQsuBQyQ+3Zk3aXjHJ5KC+7Xz8+djW3c+or+CmXja1xy7GUE9MkafuNGDHSaXc0xwkR7QKVPK2tp7lOM5VXGMUlKQHz1Gr/DK1V1CHW4iFCnZDFLSNHqlcnP/ZW1KkGDpWRIUyjkquBhvnseby1u93lqEpdi3Nkj2cEnTsI/k1x2Ytv53GpZGDEhJo+7rzUNNKNolX/eB1JbnIt3SK4d98A/p1Em4ol2DlWQIT9oLVpXY6Yi+bfZGVhYeGnKEbNzc2Ul5fXntGr1zVmJsgo7zGQg9ODfFKM1nrfpRIOmKbjt63Vb11fL25oCpiWM84ZrOe//FppMw3nJv4yPwp1cDhEZ2lVT8jy5qzgBiK3I7aHPHWGbzfX393segEtrp++ZL2P0gjvk9tt2XrxqsQGQDiqnDx8OOV2zlNzUcSEmjZwpWppm6Mnh7txrmeytp1yijJNMB+nM0pKSoZQGsrIzTZjXvaJkMS0y12wtyNwUqR9sWNv6yROGe0KveHcMhvXiOxcpWGGX2u1skPbG3GgZj7uC7UlHy71+YopTSRch7kzs/S7YecjJuIKfb1Rk1jLaZq5jqtOesjfbtsfSJnRlu2RAW9gm27PyVeBfS1eKT2ZWmYMkVqNdbScKLQu4jLHibzsJ2czfRyH079OXbyu6vm3Ft5KVVWuKnv06q0L6cQh3+AAPS1qYkH9tRM0HWm/Rt1vMxe0blM7dixo2L49+vigx5A9OaExQk7n82tBhMYeMx9rlZtrlcsKzWW5zk80Wc9RuOpkIfpatj2PH/2K0ki74/QTHvnfkWupdd05X/7K36ui/GZMn9Z2re7MJPFNzgSFq4Iwb3XuxKFD/7DKxYDOh1q9erXpYP8RfzffVqSf5P06PkLyQiHpL+NGjJhb++67KRkUOBYJBczpS9b5lCN+uP/wMo0SvJO3c1AzZ+pqrrx9dQ/tfXfVIbM+RrGNb6ZY8LC5xHLGU80DO4J89lf6fGEJc9kb15PKmytOOl+soCpXOUdzBRBXG1xuK1XL2xf1M2uhv1xe3XRXTaXvNYqLTqSXTZAPoBbOzTwolbq7trlxc7QFuNFIiSRftCUObwUNZf2T2vxqZviJF9fZ8f/zBImwH9yMAZql1GJy4W3/ehrUv9/KIYMG+fnPcBkAPnzEPG78+U1cjT+dgV0l9RotIbS0ZAU/iFQq4u9O31blIoNhis1lhYWmK9p9vMxvI6xyop2by+9LT37ycXS4Y0OJw1ux1jQ20mdKSzfzspXtgY43Ig/2LCZSdvZSDuamu1T3zZZACQZMpeQY/gUN5q/jfb43dRJ/zvBadaYYTMnAB8NTRGYQV9Na++jU5fUDqFVcxN/+5VwJ/zlTHWAG3XCzqmcrCxumVvvv5W11UUfJ52tt31a+Un+hZoqIvU+XEL/mWF9O7uKLyQXt5XPNFj7brOb7VR2O08AHrusDgwP8Uv4Rcm48hmqRCHjf7gsEAode8eNwE/2dZMaaTE7cNHH+oG463OhWrZQ9kWPgYbOK8qHQ1NLS0vafbZTmd/qS7rxe+rDt4dJJUAvnpteb17s+FocM7MPBLDBLmy5mJI84gIcgVX/2qlVOPM23TmeofEJS6LtKUg8V9QKX4N6SpKv5+zligyXvnNcGDh3+APmbXa3Rm5trQuyCQGvrYN7gCUdep97nfDJPlKRQV7x7OCrOOEK6oJCex4+0jn/W1dGJxcXveizPKbayr+M1DaPwx5byep0hDnlN6/wLlrKXcPqYG4IPEfOpK6ED/7SFdf0DGfLzUuW9/vzs4REvLeSzm6wZPzMvQ/TuLcnO6SCnr1dLW3mtfcJWu/bRh3tenjl5r5t+kCfz+/adkNn6lM8X09nmlIVNgzKznBUccEtdLaD0d56fVXwvAQBQ6jq4muK5mLJs02AR2DfWsuRnOF9ezlkpM/LLUNOF56C0nMPi0grXM2lz9nhNCfmCUIG6FTPHbaMkm1ZdfzlvWqTOswdu2AeObiusmTXB5ZxBAHA0S0nAnLa0fpxji4ukMNNG6Hj72m3hjVvp2HT3ynOKXHeIjmbGsqbMQFA9y9HQVQdfLtr9avnMoh+l/AogAEh7SQ2Y0xc1fJoreG/i1U5N1rq5+Kw491mnbXXrinOKHyRKPHBNXeQ/hVfzDLnpaK91h9TW55+bVRDz1BkAcHRJSlCbtnB9H50ZNA0CX6EUFvN51W9pqX664uzihC9fnLrY/38cDV2N4sMfaJmdl3lOzZQTMGgvwDEs4b4opy5qnsTB8g1+eAGlNFgaeoJQonrq4oZFpz7uH2+6HVGctMf7U15+p6u0XJK3dnWk5EomAOg5Egpw0xY1fEN3jj4S17zHCTJ9HR9RlrpV99q6JuapedmUxfULJLmdv1qsEx2eSWk8nzkApFjcAbOiuv46ocXPKR2GltfUyJ/kLhVsWz5QNTVE75upxdSlDT4Kiqd4OVfzDoWWUurSFbNK7iYAOCbFFTArFq27lkvz13NjjOucpe7sJLqX72xBwozJlaO40UUksRjPud093CS0kVu064VSqx1hNWrl7MyQlnKEk8fvd4IkWcYt38Wab5yuf0xvIMQjz1cWRh1fEwCOTjHnDrmx5HwS6kYOf0dcNjR4hqZ3hBS10tFNSpJfKGrk5O9ZwmlzhO1YWdnaDjheOyjyvB5dKLQ6UQtxEi96Ikel4ylOHCxNAC/j9ZTx+s6TZpxJKbRt5sjjJ+T+LQwljiNOC91jZrcDgOSLOWByuLmXg4/nkCfbubz6CgnrH2SJpwOio+mls8o+crE6MyhCPd8WmT9mLGsaZNvqdKVpFq9vKge1PEpc8sbhVvRPAoBjVsyxhFuoQxm0T4rYfs61PWYrfT/1Ldoc13XXYbZr6rJ3inWw9buCzHzIOh3mU9noeDIn1Zx5wlYCgGNSzAGzYlF9gIRc4mi6ba/csyrGkYhiNvXx+gFkyYs5Z3sZb2zy50V2RW/Tjv7qitklzxEAHLNiDpjTqps+vzzuYc/id8bSjUMCdscsriG9kht3fMlsLArHXGXEdaArle1cWTO7pI4A4JiW8qCTbKc9Xdc/GLAqpRbXaqHzSYukd2vSoRHTuOFKqPvtvOJfJbGqAQB6sB4XMPeb+Kb29t3ScJpQJnDSZEraZxHrOVjemSVzFzxZOSyl1Q0A0LP02IB5oGmPNxYrj7pAaP0t/kgxj47ERe/NvCeWCMf6yymz8l+vEgmMBA4AR62jImDul3/7ssyRI0ZP4iL1JG69L1SkS0Rnv07TPcnSQrXyR/5QaLGBhGjignejQx2vUJ/S1Sh2AwAAAAAAAAAAAAAAAAAAAAAAAAAAAAAAAAAAAAAAAAAAAAAAAAAAAAAAAAAAAAAAAAAAAAAAAAAAAAAAAAAAAAAAAAAAAAAAAAAAAAAAAAAAAAAAAAAAAAAAAAAAAAAAAAAAAAAAAAAAAAAAAAAAAAAAAAAAAAAAAAAAAAAAAAAAAAAAAAAAAAAAAAAAAAAAAAAAAAAAwLHh/wGTKikWzF0HQAAAAABJRU5ErkJggg==;" vertex="1" parent="1">
          <mxGeometry x="72.77999999999999" y="330" width="92.22" height="50" as="geometry" />
        </mxCell>
        <mxCell id="bo15evatfYEAUdu1C9lu-42" value="1" style="ellipse;whiteSpace=wrap;html=1;fillColor=#f8cecc;strokeColor=#b85450;fontColor=#990000;" vertex="1" parent="1">
          <mxGeometry x="220" y="135" width="20" height="20" as="geometry" />
        </mxCell>
        <mxCell id="bo15evatfYEAUdu1C9lu-43" value="2" style="ellipse;whiteSpace=wrap;html=1;fillColor=#f8cecc;strokeColor=#b85450;fontColor=#990000;" vertex="1" parent="1">
          <mxGeometry x="280" y="200" width="20" height="20" as="geometry" />
        </mxCell>
        <mxCell id="bo15evatfYEAUdu1C9lu-44" value="3" style="ellipse;html=1;fillColor=#f8cecc;strokeColor=#b85450;fontColor=#990000;" vertex="1" parent="1">
          <mxGeometry x="540" y="200" width="20" height="20" as="geometry" />
        </mxCell>
        <mxCell id="bo15evatfYEAUdu1C9lu-45" value="4" style="ellipse;whiteSpace=wrap;html=1;fillColor=#f8cecc;strokeColor=#b85450;fontColor=#990000;" vertex="1" parent="1">
          <mxGeometry x="415" y="400" width="20" height="20" as="geometry" />
        </mxCell>
      </root>
    </mxGraphModel>
  </diagram>
</mxfile>
